<?xml version="1.0" encoding="utf-8" standalone="no"?>
<!DOCTYPE svg PUBLIC "-//W3C//DTD SVG 1.1//EN"
  "http://www.w3.org/Graphics/SVG/1.1/DTD/svg11.dtd">
<svg xmlns:xlink="http://www.w3.org/1999/xlink" width="496.133047pt" height="350.047141pt" viewBox="0 0 496.133047 350.047141" xmlns="http://www.w3.org/2000/svg" version="1.1">
 <metadata>
  <rdf:RDF xmlns:dc="http://purl.org/dc/elements/1.1/" xmlns:cc="http://creativecommons.org/ns#" xmlns:rdf="http://www.w3.org/1999/02/22-rdf-syntax-ns#">
   <cc:Work>
    <dc:type rdf:resource="http://purl.org/dc/dcmitype/StillImage"/>
    <dc:date>2026-07-06T17:28:01.699337</dc:date>
    <dc:format>image/svg+xml</dc:format>
    <dc:creator>
     <cc:Agent>
      <dc:title>Matplotlib v3.11.0, https://matplotlib.org/</dc:title>
     </cc:Agent>
    </dc:creator>
   </cc:Work>
  </rdf:RDF>
 </metadata>
 <defs>
  <style type="text/css">*{stroke-linejoin: round; stroke-linecap: butt}</style>
 </defs>
 <g id="figure_1">
  <g id="patch_1">
   <path d="M 0 350.047141 
L 496.133047 350.047141 
L 496.133047 0 
L 0 0 
z
" style="fill: #ffffff"/>
  </g>
  <g id="axes_1">
   <g id="patch_2">
    <path d="M 53.693047 309.846281 
L 488.933047 309.846281 
L 488.933047 21.558281 
L 53.693047 21.558281 
z
" style="fill: #ffffff"/>
   </g>
   <g id="matplotlib.axis_1">
    <g id="xtick_1">
     <g id="line2d_1">
      <defs>
       <path id="m0b9f417876" d="M 0 0 
L 0 3.5 
" style="stroke: #000000; stroke-width: 0.8"/>
      </defs>
      <g>
       <use xlink:href="#m0b9f417876" x="85.167477" y="309.846281" style="stroke: #000000; stroke-width: 0.8"/>
      </g>
     </g>
     <g id="text_1">
      <text style="font-size: 11px; font-family: 'DejaVu Sans'; text-anchor: middle" x="85.167477" y="325.203703" transform="rotate(-0 85.167477 325.203703)">0.4</text>
     </g>
    </g>
    <g id="xtick_2">
     <g id="line2d_2">
      <g>
       <use xlink:href="#m0b9f417876" x="139.249742" y="309.846281" style="stroke: #000000; stroke-width: 0.8"/>
      </g>
     </g>
     <g id="text_2">
      <text style="font-size: 11px; font-family: 'DejaVu Sans'; text-anchor: middle" x="139.249742" y="325.203703" transform="rotate(-0 139.249742 325.203703)">0.6</text>
     </g>
    </g>
    <g id="xtick_3">
     <g id="line2d_3">
      <g>
       <use xlink:href="#m0b9f417876" x="193.332007" y="309.846281" style="stroke: #000000; stroke-width: 0.8"/>
      </g>
     </g>
     <g id="text_3">
      <text style="font-size: 11px; font-family: 'DejaVu Sans'; text-anchor: middle" x="193.332007" y="325.203703" transform="rotate(-0 193.332007 325.203703)">0.8</text>
     </g>
    </g>
    <g id="xtick_4">
     <g id="line2d_4">
      <g>
       <use xlink:href="#m0b9f417876" x="247.414272" y="309.846281" style="stroke: #000000; stroke-width: 0.8"/>
      </g>
     </g>
     <g id="text_4">
      <text style="font-size: 11px; font-family: 'DejaVu Sans'; text-anchor: middle" x="247.414272" y="325.203703" transform="rotate(-0 247.414272 325.203703)">1.0</text>
     </g>
    </g>
    <g id="xtick_5">
     <g id="line2d_5">
      <g>
       <use xlink:href="#m0b9f417876" x="301.496537" y="309.846281" style="stroke: #000000; stroke-width: 0.8"/>
      </g>
     </g>
     <g id="text_5">
      <text style="font-size: 11px; font-family: 'DejaVu Sans'; text-anchor: middle" x="301.496537" y="325.203703" transform="rotate(-0 301.496537 325.203703)">1.2</text>
     </g>
    </g>
    <g id="xtick_6">
     <g id="line2d_6">
      <g>
       <use xlink:href="#m0b9f417876" x="355.578802" y="309.846281" style="stroke: #000000; stroke-width: 0.8"/>
      </g>
     </g>
     <g id="text_6">
      <text style="font-size: 11px; font-family: 'DejaVu Sans'; text-anchor: middle" x="355.578802" y="325.203703" transform="rotate(-0 355.578802 325.203703)">1.4</text>
     </g>
    </g>
    <g id="xtick_7">
     <g id="line2d_7">
      <g>
       <use xlink:href="#m0b9f417876" x="409.661067" y="309.846281" style="stroke: #000000; stroke-width: 0.8"/>
      </g>
     </g>
     <g id="text_7">
      <text style="font-size: 11px; font-family: 'DejaVu Sans'; text-anchor: middle" x="409.661067" y="325.203703" transform="rotate(-0 409.661067 325.203703)">1.6</text>
     </g>
    </g>
    <g id="xtick_8">
     <g id="line2d_8">
      <g>
       <use xlink:href="#m0b9f417876" x="463.743332" y="309.846281" style="stroke: #000000; stroke-width: 0.8"/>
      </g>
     </g>
     <g id="text_8">
      <text style="font-size: 11px; font-family: 'DejaVu Sans'; text-anchor: middle" x="463.743332" y="325.203703" transform="rotate(-0 463.743332 325.203703)">1.8</text>
     </g>
    </g>
    <g id="text_9">
     <text style="font-size: 11px; font-family: 'DejaVu Sans'; text-anchor: middle" x="271.313047" y="340.204562" transform="rotate(-0 271.313047 340.204562)">Illumina input file size (GB, R1+R2 gzipped)</text>
    </g>
   </g>
   <g id="matplotlib.axis_2">
    <g id="ytick_1">
     <g id="line2d_9">
      <defs>
       <path id="m474c2abdd1" d="M 0 0 
L -3.5 0 
" style="stroke: #000000; stroke-width: 0.8"/>
      </defs>
      <g>
       <use xlink:href="#m474c2abdd1" x="53.693047" y="286.833854" style="stroke: #000000; stroke-width: 0.8"/>
      </g>
     </g>
     <g id="text_10">
      <text style="font-size: 11px; font-family: 'DejaVu Sans'; text-anchor: end" x="46.693047" y="291.012565" transform="rotate(-0 46.693047 291.012565)">2.5</text>
     </g>
    </g>
    <g id="ytick_2">
     <g id="line2d_10">
      <g>
       <use xlink:href="#m474c2abdd1" x="53.693047" y="248.25692" style="stroke: #000000; stroke-width: 0.8"/>
      </g>
     </g>
     <g id="text_11">
      <text style="font-size: 11px; font-family: 'DejaVu Sans'; text-anchor: end" x="46.693047" y="252.435631" transform="rotate(-0 46.693047 252.435631)">5.0</text>
     </g>
    </g>
    <g id="ytick_3">
     <g id="line2d_11">
      <g>
       <use xlink:href="#m474c2abdd1" x="53.693047" y="209.679986" style="stroke: #000000; stroke-width: 0.8"/>
      </g>
     </g>
     <g id="text_12">
      <text style="font-size: 11px; font-family: 'DejaVu Sans'; text-anchor: end" x="46.693047" y="213.858697" transform="rotate(-0 46.693047 213.858697)">7.5</text>
     </g>
    </g>
    <g id="ytick_4">
     <g id="line2d_12">
      <g>
       <use xlink:href="#m474c2abdd1" x="53.693047" y="171.103052" style="stroke: #000000; stroke-width: 0.8"/>
      </g>
     </g>
     <g id="text_13">
      <text style="font-size: 11px; font-family: 'DejaVu Sans'; text-anchor: end" x="46.693047" y="175.281763" transform="rotate(-0 46.693047 175.281763)">10.0</text>
     </g>
    </g>
    <g id="ytick_5">
     <g id="line2d_13">
      <g>
       <use xlink:href="#m474c2abdd1" x="53.693047" y="132.526118" style="stroke: #000000; stroke-width: 0.8"/>
      </g>
     </g>
     <g id="text_14">
      <text style="font-size: 11px; font-family: 'DejaVu Sans'; text-anchor: end" x="46.693047" y="136.704829" transform="rotate(-0 46.693047 136.704829)">12.5</text>
     </g>
    </g>
    <g id="ytick_6">
     <g id="line2d_14">
      <g>
       <use xlink:href="#m474c2abdd1" x="53.693047" y="93.949184" style="stroke: #000000; stroke-width: 0.8"/>
      </g>
     </g>
     <g id="text_15">
      <text style="font-size: 11px; font-family: 'DejaVu Sans'; text-anchor: end" x="46.693047" y="98.127895" transform="rotate(-0 46.693047 98.127895)">15.0</text>
     </g>
    </g>
    <g id="ytick_7">
     <g id="line2d_15">
      <g>
       <use xlink:href="#m474c2abdd1" x="53.693047" y="55.37225" style="stroke: #000000; stroke-width: 0.8"/>
      </g>
     </g>
     <g id="text_16">
      <text style="font-size: 11px; font-family: 'DejaVu Sans'; text-anchor: end" x="46.693047" y="59.550961" transform="rotate(-0 46.693047 59.550961)">17.5</text>
     </g>
    </g>
    <g id="text_17">
     <text style="font-size: 11px; font-family: 'DejaVu Sans'; text-anchor: middle" x="15.558281" y="165.702281" transform="rotate(-90 15.558281 165.702281)">ngs45 processing time (min)</text>
    </g>
   </g>
   <g id="patch_3">
    <path d="M 53.693047 309.846281 
L 53.693047 21.558281 
" style="fill: none; stroke: #000000; stroke-width: 0.8; stroke-linejoin: miter; stroke-linecap: square"/>
   </g>
   <g id="patch_4">
    <path d="M 53.693047 309.846281 
L 488.933047 309.846281 
" style="fill: none; stroke: #000000; stroke-width: 0.8; stroke-linejoin: miter; stroke-linecap: square"/>
   </g>
   <g id="PathCollection_1">
    <defs>
     <path id="ma9f58e49a9" d="M 0 4.743416 
C 1.257969 4.743416 2.464584 4.24362 3.354102 3.354102 
C 4.24362 2.464584 4.743416 1.257969 4.743416 0 
C 4.743416 -1.257969 4.24362 -2.464584 3.354102 -3.354102 
C 2.464584 -4.24362 1.257969 -4.743416 0 -4.743416 
C -1.257969 -4.743416 -2.464584 -4.24362 -3.354102 -3.354102 
C -4.24362 -2.464584 -4.743416 -1.257969 -4.743416 0 
C -4.743416 1.257969 -4.24362 2.464584 -3.354102 3.354102 
C -2.464584 4.24362 -1.257969 4.743416 0 4.743416 
z
" style="stroke: #000000; stroke-width: 0.5"/>
    </defs>
    <g clip-path="url(#p7abb344626)">
     <use xlink:href="#ma9f58e49a9" x="227.518574" y="242.34179" style="fill: #c62828; stroke: #000000; stroke-width: 0.5"/>
    </g>
   </g>
   <g id="text_18">
    <text style="font-style: italic; font-size: 8px; font-family: 'DejaVu Sans'; text-anchor: start" x="235.518574" y="241.34179" transform="rotate(-0 235.518574 241.34179)">H. annuus</text>
   </g>
   <g id="PathCollection_2">
    <defs>
     <path id="m8b9ca0113a" d="M 0 4.743416 
C 1.257969 4.743416 2.464584 4.24362 3.354102 3.354102 
C 4.24362 2.464584 4.743416 1.257969 4.743416 0 
C 4.743416 -1.257969 4.24362 -2.464584 3.354102 -3.354102 
C 2.464584 -4.24362 1.257969 -4.743416 0 -4.743416 
C -1.257969 -4.743416 -2.464584 -4.24362 -3.354102 -3.354102 
C -4.24362 -2.464584 -4.743416 -1.257969 -4.743416 0 
C -4.743416 1.257969 -4.24362 2.464584 -3.354102 3.354102 
C -2.464584 4.24362 -1.257969 4.743416 0 4.743416 
z
" style="stroke: #000000; stroke-width: 0.5"/>
    </defs>
    <g clip-path="url(#p7abb344626)">
     <use xlink:href="#m8b9ca0113a" x="185.481699" y="244.913586" style="fill: #2e7d32; stroke: #000000; stroke-width: 0.5"/>
    </g>
   </g>
   <g id="text_19">
    <text style="font-style: italic; font-size: 8px; font-family: 'DejaVu Sans'; text-anchor: end" x="178.481699" y="235.913586" transform="rotate(-0 178.481699 235.913586)">S. lycopersicum</text>
   </g>
   <g id="PathCollection_3">
    <g clip-path="url(#p7abb344626)">
     <use xlink:href="#m8b9ca0113a" x="224.568509" y="183.190491" style="fill: #2e7d32; stroke: #000000; stroke-width: 0.5"/>
    </g>
   </g>
   <g id="text_20">
    <text style="font-style: italic; font-size: 8px; font-family: 'DejaVu Sans'; text-anchor: start" x="230.568509" y="180.190491" transform="rotate(-0 230.568509 180.190491)">S. indicum</text>
   </g>
   <g id="PathCollection_4">
    <g clip-path="url(#p7abb344626)">
     <use xlink:href="#m8b9ca0113a" x="187.596144" y="72.346101" style="fill: #2e7d32; stroke: #000000; stroke-width: 0.5"/>
    </g>
   </g>
   <g id="text_21">
    <text style="font-style: italic; font-size: 8px; font-family: 'DejaVu Sans'; text-anchor: start" x="193.596144" y="69.346101" transform="rotate(-0 193.596144 69.346101)">C. sinensis</text>
   </g>
   <g id="PathCollection_5">
    <g clip-path="url(#p7abb344626)">
     <use xlink:href="#m8b9ca0113a" x="151.156313" y="235.140763" style="fill: #2e7d32; stroke: #000000; stroke-width: 0.5"/>
    </g>
   </g>
   <g id="text_22">
    <text style="font-style: italic; font-size: 8px; font-family: 'DejaVu Sans'; text-anchor: start" x="159.156313" y="237.140763" transform="rotate(-0 159.156313 237.140763)">G. max</text>
   </g>
   <g id="PathCollection_6">
    <g clip-path="url(#p7abb344626)">
     <use xlink:href="#m8b9ca0113a" x="178.623797" y="257.001025" style="fill: #2e7d32; stroke: #000000; stroke-width: 0.5"/>
    </g>
   </g>
   <g id="text_23">
    <text style="font-style: italic; font-size: 8px; font-family: 'DejaVu Sans'; text-anchor: start" x="186.623797" y="264.001025" transform="rotate(-0 186.623797 264.001025)">F. vesca</text>
   </g>
   <g id="PathCollection_7">
    <g clip-path="url(#p7abb344626)">
     <use xlink:href="#m8b9ca0113a" x="186.665894" y="49.45712" style="fill: #2e7d32; stroke: #000000; stroke-width: 0.5"/>
    </g>
   </g>
   <g id="text_24">
    <text style="font-style: italic; font-size: 8px; font-family: 'DejaVu Sans'; text-anchor: start" x="192.665894" y="46.45712" transform="rotate(-0 192.665894 46.45712)">P. trichocarpa</text>
   </g>
   <g id="PathCollection_8">
    <g clip-path="url(#p7abb344626)">
     <use xlink:href="#ma9f58e49a9" x="133.653257" y="229.482812" style="fill: #c62828; stroke: #000000; stroke-width: 0.5"/>
    </g>
   </g>
   <g id="text_25">
    <text style="font-style: italic; font-size: 8px; font-family: 'DejaVu Sans'; text-anchor: end" x="127.653257" y="221.482812" transform="rotate(-0 127.653257 221.482812)">V. vinifera</text>
   </g>
   <g id="PathCollection_9">
    <g clip-path="url(#p7abb344626)">
     <use xlink:href="#ma9f58e49a9" x="137.356158" y="281.947443" style="fill: #c62828; stroke: #000000; stroke-width: 0.5"/>
    </g>
   </g>
   <g id="text_26">
    <text style="font-style: italic; font-size: 8px; font-family: 'DejaVu Sans'; text-anchor: start" x="143.356158" y="278.947443" transform="rotate(-0 143.356158 278.947443)">A. chinensis</text>
   </g>
   <g id="PathCollection_10">
    <g clip-path="url(#p7abb344626)">
     <use xlink:href="#m8b9ca0113a" x="446.813047" y="106.036623" style="fill: #2e7d32; stroke: #000000; stroke-width: 0.5"/>
    </g>
   </g>
   <g id="text_27">
    <text style="font-style: italic; font-size: 8px; font-family: 'DejaVu Sans'; text-anchor: start" x="452.813047" y="103.036623" transform="rotate(-0 452.813047 103.036623)">O. sativa</text>
   </g>
   <g id="PathCollection_11">
    <defs>
     <path id="m7264f6dda3" d="M 0 4.743416 
C 1.257969 4.743416 2.464584 4.24362 3.354102 3.354102 
C 4.24362 2.464584 4.743416 1.257969 4.743416 0 
C 4.743416 -1.257969 4.24362 -2.464584 3.354102 -3.354102 
C 2.464584 -4.24362 1.257969 -4.743416 0 -4.743416 
C -1.257969 -4.743416 -2.464584 -4.24362 -3.354102 -3.354102 
C -4.24362 -2.464584 -4.743416 -1.257969 -4.743416 0 
C -4.743416 1.257969 -4.24362 2.464584 -3.354102 3.354102 
C -2.464584 4.24362 -1.257969 4.743416 0 4.743416 
z
" style="stroke: #000000; stroke-width: 0.5"/>
    </defs>
    <g clip-path="url(#p7abb344626)">
     <use xlink:href="#m7264f6dda3" x="95.813047" y="262.916155" style="fill: #ef6c00; stroke: #000000; stroke-width: 0.5"/>
    </g>
   </g>
   <g id="text_28">
    <text style="font-style: italic; font-size: 8px; font-family: 'DejaVu Sans'; text-anchor: start" x="103.813047" y="262.916155" transform="rotate(-0 103.813047 262.916155)">M. acuminata</text>
   </g>
   <g id="text_29">
    <text style="font-size: 11px; font-family: 'DejaVu Sans'; text-anchor: middle" x="271.313047" y="15.558281" transform="rotate(-0 271.313047 15.558281)">Cross-individual: data size vs ngs45 runtime</text>
   </g>
   <g id="legend_1">
    <g id="patch_5">
     <path d="M 61.793047 36.496875 
L 79.793047 36.496875 
L 79.793047 30.196875 
L 61.793047 30.196875 
z
" style="fill: #2e7d32; stroke: #2e7d32; stroke-linejoin: miter"/>
    </g>
    <g id="text_30">
     <text style="font-size: 9px; font-family: 'DejaVu Sans'; text-anchor: start" x="86.993047" y="36.496875" transform="rotate(-0 86.993047 36.496875)">full unit</text>
    </g>
    <g id="patch_6">
     <path d="M 61.793047 49.997578 
L 79.793047 49.997578 
L 79.793047 43.697578 
L 61.793047 43.697578 
z
" style="fill: #ef6c00; stroke: #ef6c00; stroke-linejoin: miter"/>
    </g>
    <g id="text_31">
     <text style="font-size: 9px; font-family: 'DejaVu Sans'; text-anchor: start" x="86.993047" y="49.997578" transform="rotate(-0 86.993047 49.997578)">partial</text>
    </g>
    <g id="patch_7">
     <path d="M 61.793047 63.498281 
L 79.793047 63.498281 
L 79.793047 57.198281 
L 61.793047 57.198281 
z
" style="fill: #c62828; stroke: #c62828; stroke-linejoin: miter"/>
    </g>
    <g id="text_32">
     <text style="font-size: 9px; font-family: 'DejaVu Sans'; text-anchor: start" x="86.993047" y="63.498281" transform="rotate(-0 86.993047 63.498281)">fail (fast, at S3)</text>
    </g>
   </g>
  </g>
 </g>
 <defs>
  <clipPath id="p7abb344626">
   <rect x="53.693047" y="21.558281" width="435.24" height="288.288"/>
  </clipPath>
 </defs>
</svg>
