<?xml version="1.0" encoding="utf-8" standalone="no"?>
<!DOCTYPE svg PUBLIC "-//W3C//DTD SVG 1.1//EN"
  "http://www.w3.org/Graphics/SVG/1.1/DTD/svg11.dtd">
<svg xmlns:xlink="http://www.w3.org/1999/xlink" width="492.622797pt" height="316.783141pt" viewBox="0 0 492.622797 316.783141" xmlns="http://www.w3.org/2000/svg" version="1.1">
 <metadata>
  <rdf:RDF xmlns:dc="http://purl.org/dc/elements/1.1/" xmlns:cc="http://creativecommons.org/ns#" xmlns:rdf="http://www.w3.org/1999/02/22-rdf-syntax-ns#">
   <cc:Work>
    <dc:type rdf:resource="http://purl.org/dc/dcmitype/StillImage"/>
    <dc:date>2026-07-06T12:28:57.985879</dc:date>
    <dc:format>image/svg+xml</dc:format>
    <dc:creator>
     <cc:Agent>
      <dc:title>Matplotlib v3.11.0, https://matplotlib.org/</dc:title>
     </cc:Agent>
    </dc:creator>
   </cc:Work>
  </rdf:RDF>
 </metadata>
 <defs>
  <style type="text/css">*{stroke-linejoin: round; stroke-linecap: butt}</style>
 </defs>
 <g id="figure_1">
  <g id="patch_1">
   <path d="M 0 316.783141 
L 492.622797 316.783141 
L 492.622797 0 
L 0 0 
z
" style="fill: #ffffff"/>
  </g>
  <g id="axes_1">
   <g id="patch_2">
    <path d="M 50.197109 276.582281 
L 474.277109 276.582281 
L 474.277109 21.558281 
L 50.197109 21.558281 
z
" style="fill: #ffffff"/>
   </g>
   <g id="matplotlib.axis_1">
    <g id="xtick_1">
     <g id="line2d_1">
      <defs>
       <path id="m205fccb9a6" d="M 0 0 
L 0 3.5 
" style="stroke: #000000; stroke-width: 0.8"/>
      </defs>
      <g>
       <use xlink:href="#m205fccb9a6" x="56.893109" y="276.582281" style="stroke: #000000; stroke-width: 0.8"/>
      </g>
     </g>
     <g id="text_1">
      <text style="font-size: 11px; font-family: 'DejaVu Sans'; text-anchor: middle" x="56.893109" y="291.939703" transform="rotate(-0 56.893109 291.939703)">75</text>
     </g>
    </g>
    <g id="xtick_2">
     <g id="line2d_2">
      <g>
       <use xlink:href="#m205fccb9a6" x="112.693109" y="276.582281" style="stroke: #000000; stroke-width: 0.8"/>
      </g>
     </g>
     <g id="text_2">
      <text style="font-size: 11px; font-family: 'DejaVu Sans'; text-anchor: middle" x="112.693109" y="291.939703" transform="rotate(-0 112.693109 291.939703)">100</text>
     </g>
    </g>
    <g id="xtick_3">
     <g id="line2d_3">
      <g>
       <use xlink:href="#m205fccb9a6" x="168.493109" y="276.582281" style="stroke: #000000; stroke-width: 0.8"/>
      </g>
     </g>
     <g id="text_3">
      <text style="font-size: 11px; font-family: 'DejaVu Sans'; text-anchor: middle" x="168.493109" y="291.939703" transform="rotate(-0 168.493109 291.939703)">125</text>
     </g>
    </g>
    <g id="xtick_4">
     <g id="line2d_4">
      <g>
       <use xlink:href="#m205fccb9a6" x="224.293109" y="276.582281" style="stroke: #000000; stroke-width: 0.8"/>
      </g>
     </g>
     <g id="text_4">
      <text style="font-size: 11px; font-family: 'DejaVu Sans'; text-anchor: middle" x="224.293109" y="291.939703" transform="rotate(-0 224.293109 291.939703)">150</text>
     </g>
    </g>
    <g id="xtick_5">
     <g id="line2d_5">
      <g>
       <use xlink:href="#m205fccb9a6" x="280.093109" y="276.582281" style="stroke: #000000; stroke-width: 0.8"/>
      </g>
     </g>
     <g id="text_5">
      <text style="font-size: 11px; font-family: 'DejaVu Sans'; text-anchor: middle" x="280.093109" y="291.939703" transform="rotate(-0 280.093109 291.939703)">175</text>
     </g>
    </g>
    <g id="xtick_6">
     <g id="line2d_6">
      <g>
       <use xlink:href="#m205fccb9a6" x="335.893109" y="276.582281" style="stroke: #000000; stroke-width: 0.8"/>
      </g>
     </g>
     <g id="text_6">
      <text style="font-size: 11px; font-family: 'DejaVu Sans'; text-anchor: middle" x="335.893109" y="291.939703" transform="rotate(-0 335.893109 291.939703)">200</text>
     </g>
    </g>
    <g id="xtick_7">
     <g id="line2d_7">
      <g>
       <use xlink:href="#m205fccb9a6" x="391.693109" y="276.582281" style="stroke: #000000; stroke-width: 0.8"/>
      </g>
     </g>
     <g id="text_7">
      <text style="font-size: 11px; font-family: 'DejaVu Sans'; text-anchor: middle" x="391.693109" y="291.939703" transform="rotate(-0 391.693109 291.939703)">225</text>
     </g>
    </g>
    <g id="xtick_8">
     <g id="line2d_8">
      <g>
       <use xlink:href="#m205fccb9a6" x="447.493109" y="276.582281" style="stroke: #000000; stroke-width: 0.8"/>
      </g>
     </g>
     <g id="text_8">
      <text style="font-size: 11px; font-family: 'DejaVu Sans'; text-anchor: middle" x="447.493109" y="291.939703" transform="rotate(-0 447.493109 291.939703)">250</text>
     </g>
    </g>
    <g id="text_9">
     <text style="font-size: 11px; font-family: 'DejaVu Sans'; text-anchor: middle" x="262.237109" y="306.940563" transform="rotate(-0 262.237109 306.940563)">Illumina read length (bp)</text>
    </g>
   </g>
   <g id="matplotlib.axis_2">
    <g id="ytick_1">
     <g id="line2d_9">
      <defs>
       <path id="mc6327b0f17" d="M 0 0 
L -3.5 0 
" style="stroke: #000000; stroke-width: 0.8"/>
      </defs>
      <g>
       <use xlink:href="#mc6327b0f17" x="50.197109" y="245.354853" style="stroke: #000000; stroke-width: 0.8"/>
      </g>
     </g>
     <g id="text_10">
      <text style="font-size: 11px; font-family: 'DejaVu Sans'; text-anchor: end" x="43.197109" y="249.533564" transform="rotate(-0 43.197109 249.533564)">80</text>
     </g>
    </g>
    <g id="ytick_2">
     <g id="line2d_10">
      <g>
       <use xlink:href="#mc6327b0f17" x="50.197109" y="193.309138" style="stroke: #000000; stroke-width: 0.8"/>
      </g>
     </g>
     <g id="text_11">
      <text style="font-size: 11px; font-family: 'DejaVu Sans'; text-anchor: end" x="43.197109" y="197.487849" transform="rotate(-0 43.197109 197.487849)">85</text>
     </g>
    </g>
    <g id="ytick_3">
     <g id="line2d_11">
      <g>
       <use xlink:href="#mc6327b0f17" x="50.197109" y="141.263424" style="stroke: #000000; stroke-width: 0.8"/>
      </g>
     </g>
     <g id="text_12">
      <text style="font-size: 11px; font-family: 'DejaVu Sans'; text-anchor: end" x="43.197109" y="145.442135" transform="rotate(-0 43.197109 145.442135)">90</text>
     </g>
    </g>
    <g id="ytick_4">
     <g id="line2d_12">
      <g>
       <use xlink:href="#mc6327b0f17" x="50.197109" y="89.21771" style="stroke: #000000; stroke-width: 0.8"/>
      </g>
     </g>
     <g id="text_13">
      <text style="font-size: 11px; font-family: 'DejaVu Sans'; text-anchor: end" x="43.197109" y="93.396421" transform="rotate(-0 43.197109 93.396421)">95</text>
     </g>
    </g>
    <g id="ytick_5">
     <g id="line2d_13">
      <g>
       <use xlink:href="#mc6327b0f17" x="50.197109" y="37.171996" style="stroke: #000000; stroke-width: 0.8"/>
      </g>
     </g>
     <g id="text_14">
      <text style="font-size: 11px; font-family: 'DejaVu Sans'; text-anchor: end" x="43.197109" y="41.350706" transform="rotate(-0 43.197109 41.350706)">100</text>
     </g>
    </g>
    <g id="text_15">
     <text style="font-size: 11px; font-family: 'DejaVu Sans'; text-anchor: middle" x="15.558281" y="149.070281" transform="rotate(-90 15.558281 149.070281)">Illumina bases ≥ Q30 (%)</text>
    </g>
   </g>
   <g id="line2d_14">
    <path d="M 224.293109 276.582281 
L 224.293109 21.558281 
" clip-path="url(#p6da78f81a1)" style="fill: none; stroke-dasharray: 2.96,1.28; stroke-dashoffset: 0; stroke: #9e9e9e; stroke-width: 0.8"/>
   </g>
   <g id="patch_3">
    <path d="M 50.197109 276.582281 
L 50.197109 21.558281 
" style="fill: none; stroke: #000000; stroke-width: 0.8; stroke-linejoin: miter; stroke-linecap: square"/>
   </g>
   <g id="patch_4">
    <path d="M 50.197109 276.582281 
L 474.277109 276.582281 
" style="fill: none; stroke: #000000; stroke-width: 0.8; stroke-linejoin: miter; stroke-linecap: square"/>
   </g>
   <g id="PathCollection_1">
    <defs>
     <path id="mff6dab3c33" d="M 0 4.330127 
C 1.148363 4.330127 2.249847 3.873878 3.061862 3.061862 
C 3.873878 2.249847 4.330127 1.148363 4.330127 0 
C 4.330127 -1.148363 3.873878 -2.249847 3.061862 -3.061862 
C 2.249847 -3.873878 1.148363 -4.330127 0 -4.330127 
C -1.148363 -4.330127 -2.249847 -3.873878 -3.061862 -3.061862 
C -3.873878 -2.249847 -4.330127 -1.148363 -4.330127 0 
C -4.330127 1.148363 -3.873878 2.249847 -3.061862 3.061862 
C -2.249847 3.873878 -1.148363 4.330127 0 4.330127 
z
" style="stroke: #000000; stroke-width: 0.4"/>
    </defs>
    <g clip-path="url(#p6da78f81a1)">
     <use xlink:href="#mff6dab3c33" x="224.293109" y="110.035996" style="fill: #2e7d32; stroke: #000000; stroke-width: 0.4"/>
    </g>
   </g>
   <g id="text_16">
    <text style="font-style: italic; font-size: 7.5px; font-family: 'DejaVu Sans'; text-anchor: start" x="229.293109" y="106.035996" transform="rotate(-0 229.293109 106.035996)">B. vulgaris</text>
   </g>
   <g id="PathCollection_2">
    <g clip-path="url(#p6da78f81a1)">
     <use xlink:href="#mff6dab3c33" x="92.605109" y="57.990281" style="fill: #2e7d32; stroke: #000000; stroke-width: 0.4"/>
    </g>
   </g>
   <g id="text_17">
    <text style="font-style: italic; font-size: 7.5px; font-family: 'DejaVu Sans'; text-anchor: start" x="100.605109" y="53.990281" transform="rotate(-0 100.605109 53.990281)">S. lycopersicum</text>
   </g>
   <g id="PathCollection_3">
    <g clip-path="url(#p6da78f81a1)">
     <use xlink:href="#mff6dab3c33" x="224.293109" y="89.21771" style="fill: #2e7d32; stroke: #000000; stroke-width: 0.4"/>
    </g>
   </g>
   <g id="text_18">
    <text style="font-style: italic; font-size: 7.5px; font-family: 'DejaVu Sans'; text-anchor: start" x="229.293109" y="85.21771" transform="rotate(-0 229.293109 85.21771)">S. indicum</text>
   </g>
   <g id="PathCollection_4">
    <g clip-path="url(#p6da78f81a1)">
     <use xlink:href="#mff6dab3c33" x="223.623509" y="99.626853" style="fill: #2e7d32; stroke: #000000; stroke-width: 0.4"/>
    </g>
   </g>
   <g id="text_19">
    <text style="font-style: italic; font-size: 7.5px; font-family: 'DejaVu Sans'; text-anchor: start" x="228.623509" y="95.626853" transform="rotate(-0 228.623509 95.626853)">G. max</text>
   </g>
   <g id="PathCollection_5">
    <g clip-path="url(#p6da78f81a1)">
     <use xlink:href="#mff6dab3c33" x="226.525109" y="120.445138" style="fill: #2e7d32; stroke: #000000; stroke-width: 0.4"/>
    </g>
   </g>
   <g id="text_20">
    <text style="font-style: italic; font-size: 7.5px; font-family: 'DejaVu Sans'; text-anchor: start" x="231.525109" y="116.445138" transform="rotate(-0 231.525109 116.445138)">P. trichocarpa</text>
   </g>
   <g id="PathCollection_6">
    <g clip-path="url(#p6da78f81a1)">
     <use xlink:href="#mff6dab3c33" x="112.469909" y="99.626853" style="fill: #2e7d32; stroke: #000000; stroke-width: 0.4"/>
    </g>
   </g>
   <g id="text_21">
    <text style="font-style: italic; font-size: 7.5px; font-family: 'DejaVu Sans'; text-anchor: start" x="118.469909" y="112.626853" transform="rotate(-0 118.469909 112.626853)">F. vesca</text>
   </g>
   <g id="PathCollection_7">
    <g clip-path="url(#p6da78f81a1)">
     <use xlink:href="#mff6dab3c33" x="447.493109" y="89.21771" style="fill: #2e7d32; stroke: #000000; stroke-width: 0.4"/>
    </g>
   </g>
   <g id="text_22">
    <text style="font-style: italic; font-size: 7.5px; font-family: 'DejaVu Sans'; text-anchor: start" x="452.493109" y="85.21771" transform="rotate(-0 452.493109 85.21771)">O. sativa</text>
   </g>
   <g id="PathCollection_8">
    <g clip-path="url(#p6da78f81a1)">
     <use xlink:href="#mff6dab3c33" x="226.525109" y="151.672567" style="fill: #2e7d32; stroke: #000000; stroke-width: 0.4"/>
    </g>
   </g>
   <g id="text_23">
    <text style="font-style: italic; font-size: 7.5px; font-family: 'DejaVu Sans'; text-anchor: start" x="231.525109" y="147.672567" transform="rotate(-0 231.525109 147.672567)">C. sinensis</text>
   </g>
   <g id="PathCollection_9">
    <defs>
     <path id="ma6f865ca08" d="M 0 4.330127 
C 1.148363 4.330127 2.249847 3.873878 3.061862 3.061862 
C 3.873878 2.249847 4.330127 1.148363 4.330127 0 
C 4.330127 -1.148363 3.873878 -2.249847 3.061862 -3.061862 
C 2.249847 -3.873878 1.148363 -4.330127 0 -4.330127 
C -1.148363 -4.330127 -2.249847 -3.873878 -3.061862 -3.061862 
C -3.873878 -2.249847 -4.330127 -1.148363 -4.330127 0 
C -4.330127 1.148363 -3.873878 2.249847 -3.061862 3.061862 
C -2.249847 3.873878 -1.148363 4.330127 0 4.330127 
z
" style="stroke: #000000; stroke-width: 0.4"/>
    </defs>
    <g clip-path="url(#p6da78f81a1)">
     <use xlink:href="#ma6f865ca08" x="112.693109" y="37.171996" style="fill: #ef6c00; stroke: #000000; stroke-width: 0.4"/>
    </g>
   </g>
   <g id="text_24">
    <text style="font-style: italic; font-size: 7.5px; font-family: 'DejaVu Sans'; text-anchor: start" x="120.693109" y="35.171996" transform="rotate(-0 120.693109 35.171996)">M. acuminata</text>
   </g>
   <g id="PathCollection_10">
    <defs>
     <path id="m8f2ec29aee" d="M 0 4.330127 
C 1.148363 4.330127 2.249847 3.873878 3.061862 3.061862 
C 3.873878 2.249847 4.330127 1.148363 4.330127 0 
C 4.330127 -1.148363 3.873878 -2.249847 3.061862 -3.061862 
C 2.249847 -3.873878 1.148363 -4.330127 0 -4.330127 
C -1.148363 -4.330127 -2.249847 -3.873878 -3.061862 -3.061862 
C -3.873878 -2.249847 -4.330127 -1.148363 -4.330127 0 
C -4.330127 1.148363 -3.873878 2.249847 -3.061862 3.061862 
C -2.249847 3.873878 -1.148363 4.330127 0 4.330127 
z
" style="stroke: #000000; stroke-width: 0.4"/>
    </defs>
    <g clip-path="url(#p6da78f81a1)">
     <use xlink:href="#m8f2ec29aee" x="224.293109" y="130.854281" style="fill: #c62828; stroke: #000000; stroke-width: 0.4"/>
    </g>
   </g>
   <g id="text_25">
    <text style="font-style: italic; font-size: 7.5px; font-family: 'DejaVu Sans'; text-anchor: start" x="232.293109" y="132.854281" transform="rotate(-0 232.293109 132.854281)">H. annuus</text>
   </g>
   <g id="PathCollection_11">
    <g clip-path="url(#p6da78f81a1)">
     <use xlink:href="#m8f2ec29aee" x="226.525109" y="255.763996" style="fill: #c62828; stroke: #000000; stroke-width: 0.4"/>
    </g>
   </g>
   <g id="text_26">
    <text style="font-style: italic; font-size: 7.5px; font-family: 'DejaVu Sans'; text-anchor: start" x="234.525109" y="253.763996" transform="rotate(-0 234.525109 253.763996)">V. vinifera</text>
   </g>
   <g id="PathCollection_12">
    <g clip-path="url(#p6da78f81a1)">
     <use xlink:href="#m8f2ec29aee" x="79.882709" y="99.626853" style="fill: #c62828; stroke: #000000; stroke-width: 0.4"/>
    </g>
   </g>
   <g id="text_27">
    <text style="font-style: italic; font-size: 7.5px; font-family: 'DejaVu Sans'; text-anchor: start" x="86.882709" y="90.626853" transform="rotate(-0 86.882709 90.626853)">A. chinensis</text>
   </g>
   <g id="text_28">
    <text style="font-size: 8px; font-family: 'DejaVu Sans'; text-anchor: middle; fill: #9e9e9e" x="224.293109" y="30.92651" transform="rotate(-0 224.293109 30.92651)">150 bp</text>
   </g>
   <g id="text_29">
    <text style="font-size: 11px; font-family: 'DejaVu Sans'; text-anchor: middle" x="262.237109" y="15.558281" transform="rotate(-0 262.237109 15.558281)">Recovery vs read length &amp; quality</text>
   </g>
   <g id="legend_1">
    <g id="patch_5">
     <path d="M 325.694453 241.388961 
L 342.694453 241.388961 
L 342.694453 235.438961 
L 325.694453 235.438961 
z
" style="fill: #2e7d32; stroke: #2e7d32; stroke-linejoin: miter"/>
    </g>
    <g id="text_30">
     <text style="font-size: 8.5px; font-family: 'DejaVu Sans'; text-anchor: start" x="349.494453" y="241.388961" transform="rotate(-0 349.494453 241.388961)">full</text>
    </g>
    <g id="patch_6">
     <path d="M 325.694453 254.139625 
L 342.694453 254.139625 
L 342.694453 248.189625 
L 325.694453 248.189625 
z
" style="fill: #ef6c00; stroke: #ef6c00; stroke-linejoin: miter"/>
    </g>
    <g id="text_31">
     <text style="font-size: 8.5px; font-family: 'DejaVu Sans'; text-anchor: start" x="349.494453" y="254.139625" transform="rotate(-0 349.494453 254.139625)">partial</text>
    </g>
    <g id="patch_7">
     <path d="M 325.694453 266.890289 
L 342.694453 266.890289 
L 342.694453 260.940289 
L 325.694453 260.940289 
z
" style="fill: #c62828; stroke: #c62828; stroke-linejoin: miter"/>
    </g>
    <g id="text_32">
     <text style="font-size: 8.5px; font-family: 'DejaVu Sans'; text-anchor: start" x="349.494453" y="266.890289" transform="rotate(-0 349.494453 266.890289)">fail (short reads can't span)</text>
    </g>
   </g>
  </g>
 </g>
 <defs>
  <clipPath id="p6da78f81a1">
   <rect x="50.197109" y="21.558281" width="424.08" height="255.024"/>
  </clipPath>
 </defs>
</svg>
