<?xml version="1.0" encoding="UTF-8" standalone="no"?>
<!DOCTYPE svg PUBLIC "-//W3C//DTD SVG 1.1//EN"
 "http://www.w3.org/Graphics/SVG/1.1/DTD/svg11.dtd">
<!-- Generated by graphviz version 2.43.0 (0)
 -->
<!-- Title: ngs45 Pages: 1 -->
<svg width="1889pt" height="994pt"
 viewBox="0.00 0.00 1889.00 994.00" xmlns="http://www.w3.org/2000/svg" xmlns:xlink="http://www.w3.org/1999/xlink">
<g id="graph0" class="graph" transform="scale(1 1) rotate(0) translate(4 990)">
<title>ngs45</title>
<polygon fill="white" stroke="transparent" points="-4,4 -4,-990 1885,-990 1885,4 -4,4"/>
<g id="clust1" class="cluster">
<title>cluster_inputs</title>
<polygon fill="white" stroke="#9aa0a6" stroke-dasharray="5,2" points="8,-853 8,-978 1873,-978 1873,-853 8,-853"/>
<text text-anchor="middle" x="39" y="-962" font-family="Helvetica,sans-Serif" font-size="15.00" fill="#5f6368">INPUT</text>
</g>
<!-- reads -->
<g id="node1" class="node">
<title>reads</title>
<polygon fill="#d2e3fc" stroke="black" points="449.86,-945 104.88,-945 16.14,-861 361.12,-861 449.86,-945"/>
<text text-anchor="middle" x="233" y="-908" font-family="Helvetica,sans-Serif" font-size="15.00">Illumina paired&#45;end reads</text>
<text text-anchor="middle" x="233" y="-891" font-family="Helvetica,sans-Serif" font-size="15.00">(FASTQ[.gz])</text>
</g>
<!-- s0 -->
<g id="node5" class="node">
<title>s0</title>
<path fill="#fef7e0" stroke="#e8a33d" d="M725.5,-820C725.5,-820 582.5,-820 582.5,-820 576.5,-820 570.5,-814 570.5,-808 570.5,-808 570.5,-790 570.5,-790 570.5,-784 576.5,-778 582.5,-778 582.5,-778 725.5,-778 725.5,-778 731.5,-778 737.5,-784 737.5,-790 737.5,-790 737.5,-808 737.5,-808 737.5,-814 731.5,-820 725.5,-820"/>
<text text-anchor="middle" x="654" y="-804" font-family="Helvetica,sans-Serif" font-size="15.00">S0 &#160;QC / trim reads</text>
<text text-anchor="middle" x="654" y="-787" font-family="Helvetica,sans-Serif" font-size="15.00">cutadapt &#160;(optional)</text>
</g>
<!-- reads&#45;&gt;s0 -->
<g id="edge1" class="edge">
<title>reads&#45;&gt;s0</title>
<path fill="none" stroke="#c77800" stroke-width="1.6" d="M369.69,-868.88C432.43,-853.68 505.18,-836.06 561.39,-822.44"/>
<polygon fill="#c77800" stroke="#c77800" stroke-width="1.6" points="562.43,-825.79 571.33,-820.03 560.79,-818.98 562.43,-825.79"/>
</g>
<!-- seed -->
<g id="node2" class="node">
<title>seed</title>
<polygon fill="#d2e3fc" stroke="black" points="1343.7,-945 957.62,-945 858.3,-861 1244.38,-861 1343.7,-945"/>
<text text-anchor="middle" x="1101" y="-908" font-family="Helvetica,sans-Serif" font-size="15.00">Bundled 45S seed</text>
<text text-anchor="middle" x="1101" y="-891" font-family="Helvetica,sans-Serif" font-size="15.00">Arabidopsis T2T (OR453402)</text>
</g>
<!-- s1 -->
<g id="node6" class="node">
<title>s1</title>
<path fill="#fef7e0" stroke="#e8a33d" d="M1264.5,-724C1264.5,-724 937.5,-724 937.5,-724 931.5,-724 925.5,-718 925.5,-712 925.5,-712 925.5,-694 925.5,-694 925.5,-688 931.5,-682 937.5,-682 937.5,-682 1264.5,-682 1264.5,-682 1270.5,-682 1276.5,-688 1276.5,-694 1276.5,-694 1276.5,-712 1276.5,-712 1276.5,-718 1270.5,-724 1264.5,-724"/>
<text text-anchor="middle" x="1101" y="-708" font-family="Helvetica,sans-Serif" font-size="15.00">S1 &#160;Bait rDNA reads</text>
<text text-anchor="middle" x="1101" y="-691" font-family="Helvetica,sans-Serif" font-size="15.00">bowtie2 — iterative recruitment vs 45S seed</text>
</g>
<!-- seed&#45;&gt;s1 -->
<g id="edge4" class="edge">
<title>seed&#45;&gt;s1</title>
<path fill="none" stroke="#c77800" stroke-width="1.6" d="M1101,-860.97C1101,-823.26 1101,-768.21 1101,-734.32"/>
<polygon fill="#c77800" stroke="#c77800" stroke-width="1.6" points="1104.5,-734.11 1101,-724.11 1097.5,-734.11 1104.5,-734.11"/>
</g>
<!-- cms -->
<g id="node3" class="node">
<title>cms</title>
<polygon fill="#d2e3fc" stroke="black" points="1864.85,-945 1475.35,-945 1375.15,-861 1764.65,-861 1864.85,-945"/>
<text text-anchor="middle" x="1620" y="-908" font-family="Helvetica,sans-Serif" font-size="15.00">Bundled Rfam SSU+LSU CMs</text>
<text text-anchor="middle" x="1620" y="-891" font-family="Helvetica,sans-Serif" font-size="15.00">(RF01960 / RF02543)</text>
</g>
<!-- s4 -->
<g id="node9" class="node">
<title>s4</title>
<path fill="#fef7e0" stroke="#e8a33d" d="M1554.5,-436C1554.5,-436 1205.5,-436 1205.5,-436 1199.5,-436 1193.5,-430 1193.5,-424 1193.5,-424 1193.5,-406 1193.5,-406 1193.5,-400 1199.5,-394 1205.5,-394 1205.5,-394 1554.5,-394 1554.5,-394 1560.5,-394 1566.5,-400 1566.5,-406 1566.5,-406 1566.5,-424 1566.5,-424 1566.5,-430 1560.5,-436 1554.5,-436"/>
<text text-anchor="middle" x="1380" y="-420" font-family="Helvetica,sans-Serif" font-size="15.00">S4 &#160;Orient &amp; trim to mature unit (18S 5&#39;&#45;26S 3&#39;)</text>
<text text-anchor="middle" x="1380" y="-403" font-family="Helvetica,sans-Serif" font-size="15.00">cmsearch vs Rfam SSU+LSU CMs</text>
</g>
<!-- cms&#45;&gt;s4 -->
<g id="edge8" class="edge">
<title>cms&#45;&gt;s4</title>
<path fill="none" stroke="#c77800" stroke-width="1.6" d="M1509.72,-860.81C1488.64,-845.81 1473,-825.94 1473,-800 1473,-800 1473,-800 1473,-510 1473,-483.74 1466.55,-475.54 1449,-456 1444.34,-450.81 1438.84,-446.11 1433.01,-441.92"/>
<polygon fill="#c77800" stroke="#c77800" stroke-width="1.6" points="1434.56,-438.74 1424.3,-436.13 1430.69,-444.58 1434.56,-438.74"/>
</g>
<!-- orgref -->
<g id="node4" class="node">
<title>orgref</title>
<polygon fill="#e8eaed" stroke="black" points="826.2,-945 552.27,-945 481.8,-861 755.73,-861 826.2,-945"/>
<text text-anchor="middle" x="654" y="-908" font-family="Helvetica,sans-Serif" font-size="15.00">Organelle reference</text>
<text text-anchor="middle" x="654" y="-891" font-family="Helvetica,sans-Serif" font-size="15.00">(optional)</text>
</g>
<!-- orgref&#45;&gt;s0 -->
<g id="edge2" class="edge">
<title>orgref&#45;&gt;s0</title>
<path fill="none" stroke="#b0b3b8" stroke-dasharray="5,2" d="M654,-860.81C654,-850.6 654,-839.86 654,-830.28"/>
<polygon fill="#b0b3b8" stroke="#b0b3b8" points="657.5,-830.06 654,-820.06 650.5,-830.06 657.5,-830.06"/>
</g>
<!-- s0&#45;&gt;s1 -->
<g id="edge3" class="edge">
<title>s0&#45;&gt;s1</title>
<path fill="none" stroke="#c77800" stroke-width="1.6" d="M737.55,-780.43C810.61,-765.07 917.06,-742.68 995.89,-726.1"/>
<polygon fill="#c77800" stroke="#c77800" stroke-width="1.6" points="996.78,-729.49 1005.85,-724.01 995.34,-722.64 996.78,-729.49"/>
<text text-anchor="middle" x="922.5" y="-747.6" font-family="Helvetica,sans-Serif" font-size="13.00">reads</text>
</g>
<!-- s2 -->
<g id="node7" class="node">
<title>s2</title>
<path fill="#fbbc04" stroke="#b06000" stroke-width="2" d="M1392.5,-628C1392.5,-628 1149.5,-628 1149.5,-628 1143.5,-628 1137.5,-622 1137.5,-616 1137.5,-616 1137.5,-598 1137.5,-598 1137.5,-592 1143.5,-586 1149.5,-586 1149.5,-586 1392.5,-586 1392.5,-586 1398.5,-586 1404.5,-592 1404.5,-598 1404.5,-598 1404.5,-616 1404.5,-616 1404.5,-622 1398.5,-628 1392.5,-628"/>
<text text-anchor="middle" x="1271" y="-612" font-family="Helvetica,sans-Serif" font-size="15.00">S2 &#160;Assemble recruited reads</text>
<text text-anchor="middle" x="1271" y="-595" font-family="Helvetica,sans-Serif" font-size="15.00">SPAdes multi&#45;k &#160;(k &lt; read length)</text>
</g>
<!-- s1&#45;&gt;s2 -->
<g id="edge5" class="edge">
<title>s1&#45;&gt;s2</title>
<path fill="none" stroke="#c77800" stroke-width="1.6" d="M1137.47,-681.83C1163.24,-667.59 1197.96,-648.39 1225.54,-633.14"/>
<polygon fill="#c77800" stroke="#c77800" stroke-width="1.6" points="1227.53,-636.03 1234.59,-628.13 1224.15,-629.91 1227.53,-636.03"/>
<text text-anchor="middle" x="1270.5" y="-651.6" font-family="Helvetica,sans-Serif" font-size="13.00">recruited reads (rDNA)</text>
</g>
<!-- s3 -->
<g id="node8" class="node">
<title>s3</title>
<path fill="#fef7e0" stroke="#e8a33d" d="M1410,-532C1410,-532 1162,-532 1162,-532 1156,-532 1150,-526 1150,-520 1150,-520 1150,-502 1150,-502 1150,-496 1156,-490 1162,-490 1162,-490 1410,-490 1410,-490 1416,-490 1422,-496 1422,-502 1422,-502 1422,-520 1422,-520 1422,-526 1416,-532 1410,-532"/>
<text text-anchor="middle" x="1286" y="-516" font-family="Helvetica,sans-Serif" font-size="15.00">S3 &#160;Resolve one repeat unit</text>
<text text-anchor="middle" x="1286" y="-499" font-family="Helvetica,sans-Serif" font-size="15.00">BLAST seed vs contigs + scaffolds</text>
</g>
<!-- s2&#45;&gt;s3 -->
<g id="edge6" class="edge">
<title>s2&#45;&gt;s3</title>
<path fill="none" stroke="#c77800" stroke-width="1.6" d="M1274.25,-585.6C1276.27,-572.95 1278.9,-556.47 1281.16,-542.31"/>
<polygon fill="#c77800" stroke="#c77800" stroke-width="1.6" points="1284.68,-542.46 1282.8,-532.03 1277.77,-541.36 1284.68,-542.46"/>
<text text-anchor="middle" x="1342.5" y="-555.6" font-family="Helvetica,sans-Serif" font-size="13.00">contigs + scaffolds</text>
</g>
<!-- s3&#45;&gt;s4 -->
<g id="edge7" class="edge">
<title>s3&#45;&gt;s4</title>
<path fill="none" stroke="#c77800" stroke-width="1.6" d="M1306.4,-489.6C1319.92,-476.08 1337.81,-458.19 1352.57,-443.43"/>
<polygon fill="#c77800" stroke="#c77800" stroke-width="1.6" points="1355.37,-445.58 1359.97,-436.03 1350.42,-440.63 1355.37,-445.58"/>
<text text-anchor="middle" x="1389.5" y="-459.6" font-family="Helvetica,sans-Serif" font-size="13.00">one repeat unit</text>
</g>
<!-- s5 -->
<g id="node10" class="node">
<title>s5</title>
<path fill="#fef7e0" stroke="#e8a33d" d="M1510.5,-340C1510.5,-340 1249.5,-340 1249.5,-340 1243.5,-340 1237.5,-334 1237.5,-328 1237.5,-328 1237.5,-310 1237.5,-310 1237.5,-304 1243.5,-298 1249.5,-298 1249.5,-298 1510.5,-298 1510.5,-298 1516.5,-298 1522.5,-304 1522.5,-310 1522.5,-310 1522.5,-328 1522.5,-328 1522.5,-334 1516.5,-340 1510.5,-340"/>
<text text-anchor="middle" x="1380" y="-324" font-family="Helvetica,sans-Serif" font-size="15.00">S5 &#160;Annotate + ITS barcode</text>
<text text-anchor="middle" x="1380" y="-307" font-family="Helvetica,sans-Serif" font-size="15.00">ITSx &#160;(18S / ITS1 / 5.8S / ITS2 / 26S)</text>
</g>
<!-- s4&#45;&gt;s5 -->
<g id="edge9" class="edge">
<title>s4&#45;&gt;s5</title>
<path fill="none" stroke="#c77800" stroke-width="1.6" d="M1380,-393.6C1380,-380.95 1380,-364.47 1380,-350.31"/>
<polygon fill="#c77800" stroke="#c77800" stroke-width="1.6" points="1383.5,-350.03 1380,-340.03 1376.5,-350.03 1383.5,-350.03"/>
<text text-anchor="middle" x="1448" y="-363.6" font-family="Helvetica,sans-Serif" font-size="13.00">mature 18S&#45;26S unit</text>
</g>
<!-- s6 -->
<g id="node11" class="node">
<title>s6</title>
<path fill="#fef7e0" stroke="#e8a33d" d="M1510,-244C1510,-244 1250,-244 1250,-244 1244,-244 1238,-238 1238,-232 1238,-232 1238,-214 1238,-214 1238,-208 1244,-202 1250,-202 1250,-202 1510,-202 1510,-202 1516,-202 1522,-208 1522,-214 1522,-214 1522,-232 1522,-232 1522,-238 1516,-244 1510,-244"/>
<text text-anchor="middle" x="1380" y="-228" font-family="Helvetica,sans-Serif" font-size="15.00">S6 &#160;Ribotype heterozygosity</text>
<text text-anchor="middle" x="1380" y="-211" font-family="Helvetica,sans-Serif" font-size="15.00">bwa | samtools | bcftools &#160;(optional)</text>
</g>
<!-- s5&#45;&gt;s6 -->
<g id="edge10" class="edge">
<title>s5&#45;&gt;s6</title>
<path fill="none" stroke="#c77800" stroke-width="1.6" d="M1380,-297.6C1380,-284.95 1380,-268.47 1380,-254.31"/>
<polygon fill="#c77800" stroke="#c77800" stroke-width="1.6" points="1383.5,-254.03 1380,-244.03 1376.5,-254.03 1383.5,-254.03"/>
<text text-anchor="middle" x="1430" y="-267.6" font-family="Helvetica,sans-Serif" font-size="13.00">consensus unit</text>
</g>
<!-- s7 -->
<g id="node12" class="node">
<title>s7</title>
<path fill="#fef7e0" stroke="#e8a33d" d="M1330.5,-140C1330.5,-140 1169.5,-140 1169.5,-140 1163.5,-140 1157.5,-134 1157.5,-128 1157.5,-128 1157.5,-116 1157.5,-116 1157.5,-110 1163.5,-104 1169.5,-104 1169.5,-104 1330.5,-104 1330.5,-104 1336.5,-104 1342.5,-110 1342.5,-116 1342.5,-116 1342.5,-128 1342.5,-128 1342.5,-134 1336.5,-140 1330.5,-140"/>
<text text-anchor="middle" x="1250" y="-118.5" font-family="Helvetica,sans-Serif" font-size="15.00">S7 &#160;Summary + report</text>
</g>
<!-- s6&#45;&gt;s7 -->
<g id="edge11" class="edge">
<title>s6&#45;&gt;s7</title>
<path fill="none" stroke="#c77800" stroke-width="1.6" d="M1353.69,-201.97C1332.51,-185.83 1302.7,-163.14 1280.48,-146.21"/>
<polygon fill="#c77800" stroke="#c77800" stroke-width="1.6" points="1282.45,-143.31 1272.37,-140.04 1278.21,-148.88 1282.45,-143.31"/>
</g>
<!-- rnote -->
<g id="node13" class="node">
<title>rnote</title>
<polygon fill="#fce8e6" stroke="#c5221f" points="1641.5,-161 1374.5,-161 1374.5,-83 1647.5,-83 1647.5,-155 1641.5,-161"/>
<polyline fill="none" stroke="#c5221f" points="1641.5,-161 1641.5,-155 "/>
<polyline fill="none" stroke="#c5221f" points="1647.5,-155 1641.5,-155 "/>
<text text-anchor="start" x="1382.5" y="-146.6" font-family="Helvetica,sans-Serif" font-size="13.00">ribotype_sites (&#45;&#45;call&#45;variants):</text>
<text text-anchor="start" x="1382.5" y="-132.6" font-family="Helvetica,sans-Serif" font-size="13.00"> &#160;map reads back to the unit</text>
<text text-anchor="start" x="1382.5" y="-118.6" font-family="Helvetica,sans-Serif" font-size="13.00"> &#160;minor allele &gt;= 10% at depth &gt;= 20</text>
<text text-anchor="start" x="1382.5" y="-104.6" font-family="Helvetica,sans-Serif" font-size="13.00"> &#160;high count &#45;&gt; heterogeneous array</text>
<text text-anchor="start" x="1382.5" y="-90.6" font-family="Helvetica,sans-Serif" font-size="13.00"> &#160;(hybrid / allopolyploidy signal)</text>
</g>
<!-- s6&#45;&gt;rnote -->
<g id="edge12" class="edge">
<title>s6&#45;&gt;rnote</title>
<path fill="none" stroke="#c5221f" stroke-width="1.6" stroke-dasharray="1,5" d="M1406.51,-201.97C1422.06,-190.21 1442.22,-174.98 1460.68,-161.03"/>
</g>
<!-- o_unit -->
<g id="node14" class="node">
<title>o_unit</title>
<polygon fill="#e6f4ea" stroke="#34a853" points="814,-42 630,-42 630,0 820,0 820,-36 814,-42"/>
<polyline fill="none" stroke="#34a853" points="814,-42 814,-36 "/>
<polyline fill="none" stroke="#34a853" points="820,-36 814,-36 "/>
<text text-anchor="middle" x="725" y="-26" font-family="Helvetica,sans-Serif" font-size="15.00">nrDNA_45S.fasta</text>
<text text-anchor="middle" x="725" y="-9" font-family="Helvetica,sans-Serif" font-size="15.00">(mature unit, 18S&#45;26S)</text>
</g>
<!-- s7&#45;&gt;o_unit -->
<g id="edge13" class="edge">
<title>s7&#45;&gt;o_unit</title>
<path fill="none" stroke="#c77800" stroke-width="1.6" d="M1159.75,-103.98C1068.29,-86.73 926.89,-60.07 830.35,-41.87"/>
<polygon fill="#c77800" stroke="#c77800" stroke-width="1.6" points="830.75,-38.38 820.28,-39.97 829.45,-45.26 830.75,-38.38"/>
</g>
<!-- o_its -->
<g id="node15" class="node">
<title>o_its</title>
<polygon fill="#e6f4ea" stroke="#34a853" points="1049.5,-42 852.5,-42 852.5,0 1055.5,0 1055.5,-36 1049.5,-42"/>
<polyline fill="none" stroke="#34a853" points="1049.5,-42 1049.5,-36 "/>
<polyline fill="none" stroke="#34a853" points="1055.5,-36 1049.5,-36 "/>
<text text-anchor="middle" x="954" y="-26" font-family="Helvetica,sans-Serif" font-size="15.00">its.fasta + its_parts.fasta</text>
<text text-anchor="middle" x="954" y="-9" font-family="Helvetica,sans-Serif" font-size="15.00">(ITS barcode)</text>
</g>
<!-- s7&#45;&gt;o_its -->
<!-- o_reg -->
<g id="node16" class="node">
<title>o_reg</title>
<polygon fill="#e6f4ea" stroke="#34a853" points="1232,-42 1088,-42 1088,0 1238,0 1238,-36 1232,-42"/>
<polyline fill="none" stroke="#34a853" points="1232,-42 1232,-36 "/>
<polyline fill="none" stroke="#34a853" points="1238,-36 1232,-36 "/>
<text text-anchor="middle" x="1163" y="-26" font-family="Helvetica,sans-Serif" font-size="15.00">regions/</text>
<text text-anchor="middle" x="1163" y="-9" font-family="Helvetica,sans-Serif" font-size="15.00">(five 45S regions)</text>
</g>
<!-- s7&#45;&gt;o_reg -->
<!-- o_gff -->
<g id="node17" class="node">
<title>o_gff</title>
<polygon fill="#e6f4ea" stroke="#34a853" points="1397.5,-39 1270.5,-39 1270.5,-3 1403.5,-3 1403.5,-33 1397.5,-39"/>
<polyline fill="none" stroke="#34a853" points="1397.5,-39 1397.5,-33 "/>
<polyline fill="none" stroke="#34a853" points="1403.5,-33 1397.5,-33 "/>
<text text-anchor="middle" x="1337" y="-17.5" font-family="Helvetica,sans-Serif" font-size="15.00">annotation.gff3</text>
</g>
<!-- s7&#45;&gt;o_gff -->
<!-- o_rib -->
<g id="node18" class="node">
<title>o_rib</title>
<polygon fill="#e6f4ea" stroke="#34a853" points="1604.5,-39 1435.5,-39 1435.5,-3 1610.5,-3 1610.5,-33 1604.5,-39"/>
<polyline fill="none" stroke="#34a853" points="1604.5,-39 1604.5,-33 "/>
<polyline fill="none" stroke="#34a853" points="1610.5,-33 1604.5,-33 "/>
<text text-anchor="middle" x="1523" y="-17.5" font-family="Helvetica,sans-Serif" font-size="15.00">ribotype_variants.tsv</text>
</g>
<!-- s7&#45;&gt;o_rib -->
<!-- o_rep -->
<g id="node19" class="node">
<title>o_rep</title>
<polygon fill="#e6f4ea" stroke="#34a853" points="1841,-39 1643,-39 1643,-3 1847,-3 1847,-33 1841,-39"/>
<polyline fill="none" stroke="#34a853" points="1841,-39 1841,-33 "/>
<polyline fill="none" stroke="#34a853" points="1847,-33 1841,-33 "/>
<text text-anchor="middle" x="1745" y="-17.5" font-family="Helvetica,sans-Serif" font-size="15.00">summary.tsv + report.txt</text>
</g>
<!-- s7&#45;&gt;o_rep -->
</g>
</svg>
