<?xml version="1.0" encoding="UTF-8" standalone="no"?>
<!DOCTYPE svg PUBLIC "-//W3C//DTD SVG 1.1//EN"
 "http://www.w3.org/Graphics/SVG/1.1/DTD/svg11.dtd">
<!-- Generated by graphviz version 2.43.0 (0)
 -->
<!-- Title: ngs45 Pages: 1 -->
<svg width="1512pt" height="994pt"
 viewBox="0.00 0.00 1512.00 994.00" xmlns="http://www.w3.org/2000/svg" xmlns:xlink="http://www.w3.org/1999/xlink">
<g id="graph0" class="graph" transform="scale(1 1) rotate(0) translate(4 990)">
<title>ngs45</title>
<polygon fill="white" stroke="transparent" points="-4,4 -4,-990 1508,-990 1508,4 -4,4"/>
<g id="clust1" class="cluster">
<title>cluster_inputs</title>
<polygon fill="white" stroke="#9aa0a6" stroke-dasharray="5,2" points="8,-853 8,-978 1496,-978 1496,-853 8,-853"/>
<text text-anchor="middle" x="39" y="-962" font-family="Helvetica,sans-Serif" font-size="15.00" fill="#5f6368">INPUT</text>
</g>
<!-- reads -->
<g id="node1" class="node">
<title>reads</title>
<polygon fill="#d2e3fc" stroke="black" points="449.86,-945 104.88,-945 16.14,-861 361.12,-861 449.86,-945"/>
<text text-anchor="middle" x="233" y="-908" font-family="Helvetica,sans-Serif" font-size="15.00">Illumina paired&#45;end reads</text>
<text text-anchor="middle" x="233" y="-891" font-family="Helvetica,sans-Serif" font-size="15.00">(FASTQ[.gz])</text>
</g>
<!-- s0 -->
<g id="node4" class="node">
<title>s0</title>
<path fill="#fef7e0" stroke="#e8a33d" d="M466.5,-820C466.5,-820 323.5,-820 323.5,-820 317.5,-820 311.5,-814 311.5,-808 311.5,-808 311.5,-790 311.5,-790 311.5,-784 317.5,-778 323.5,-778 323.5,-778 466.5,-778 466.5,-778 472.5,-778 478.5,-784 478.5,-790 478.5,-790 478.5,-808 478.5,-808 478.5,-814 472.5,-820 466.5,-820"/>
<text text-anchor="middle" x="395" y="-804" font-family="Helvetica,sans-Serif" font-size="15.00">S0 &#160;QC / trim reads</text>
<text text-anchor="middle" x="395" y="-787" font-family="Helvetica,sans-Serif" font-size="15.00">cutadapt &#160;(optional)</text>
</g>
<!-- reads&#45;&gt;s0 -->
<g id="edge1" class="edge">
<title>reads&#45;&gt;s0</title>
<path fill="none" stroke="#c77800" stroke-width="1.6" d="M298.42,-860.81C317.42,-848.85 337.6,-836.14 354.58,-825.45"/>
<polygon fill="#c77800" stroke="#c77800" stroke-width="1.6" points="356.54,-828.35 363.14,-820.06 352.81,-822.43 356.54,-828.35"/>
</g>
<!-- seed -->
<g id="node2" class="node">
<title>seed</title>
<polygon fill="#d2e3fc" stroke="black" points="966.7,-945 580.62,-945 481.3,-861 867.38,-861 966.7,-945"/>
<text text-anchor="middle" x="724" y="-908" font-family="Helvetica,sans-Serif" font-size="15.00">Bundled 45S seed</text>
<text text-anchor="middle" x="724" y="-891" font-family="Helvetica,sans-Serif" font-size="15.00">Arabidopsis T2T (OR453402)</text>
</g>
<!-- s1 -->
<g id="node5" class="node">
<title>s1</title>
<path fill="#fef7e0" stroke="#e8a33d" d="M887.5,-724C887.5,-724 560.5,-724 560.5,-724 554.5,-724 548.5,-718 548.5,-712 548.5,-712 548.5,-694 548.5,-694 548.5,-688 554.5,-682 560.5,-682 560.5,-682 887.5,-682 887.5,-682 893.5,-682 899.5,-688 899.5,-694 899.5,-694 899.5,-712 899.5,-712 899.5,-718 893.5,-724 887.5,-724"/>
<text text-anchor="middle" x="724" y="-708" font-family="Helvetica,sans-Serif" font-size="15.00">S1 &#160;Bait rDNA reads</text>
<text text-anchor="middle" x="724" y="-691" font-family="Helvetica,sans-Serif" font-size="15.00">bowtie2 — iterative recruitment vs 45S seed</text>
</g>
<!-- seed&#45;&gt;s1 -->
<g id="edge3" class="edge">
<title>seed&#45;&gt;s1</title>
<path fill="none" stroke="#c77800" stroke-width="1.6" d="M724,-860.97C724,-823.26 724,-768.21 724,-734.32"/>
<polygon fill="#c77800" stroke="#c77800" stroke-width="1.6" points="727.5,-734.11 724,-724.11 720.5,-734.11 727.5,-734.11"/>
</g>
<!-- cms -->
<g id="node3" class="node">
<title>cms</title>
<polygon fill="#d2e3fc" stroke="black" points="1487.85,-945 1098.35,-945 998.15,-861 1387.65,-861 1487.85,-945"/>
<text text-anchor="middle" x="1243" y="-908" font-family="Helvetica,sans-Serif" font-size="15.00">Bundled Rfam SSU+LSU CMs</text>
<text text-anchor="middle" x="1243" y="-891" font-family="Helvetica,sans-Serif" font-size="15.00">(RF01960 / RF02543)</text>
</g>
<!-- s4 -->
<g id="node8" class="node">
<title>s4</title>
<path fill="#fef7e0" stroke="#e8a33d" d="M1177.5,-436C1177.5,-436 828.5,-436 828.5,-436 822.5,-436 816.5,-430 816.5,-424 816.5,-424 816.5,-406 816.5,-406 816.5,-400 822.5,-394 828.5,-394 828.5,-394 1177.5,-394 1177.5,-394 1183.5,-394 1189.5,-400 1189.5,-406 1189.5,-406 1189.5,-424 1189.5,-424 1189.5,-430 1183.5,-436 1177.5,-436"/>
<text text-anchor="middle" x="1003" y="-420" font-family="Helvetica,sans-Serif" font-size="15.00">S4 &#160;Orient &amp; trim to mature unit (18S 5&#39;&#45;26S 3&#39;)</text>
<text text-anchor="middle" x="1003" y="-403" font-family="Helvetica,sans-Serif" font-size="15.00">cmsearch vs Rfam SSU+LSU CMs</text>
</g>
<!-- cms&#45;&gt;s4 -->
<g id="edge7" class="edge">
<title>cms&#45;&gt;s4</title>
<path fill="none" stroke="#c77800" stroke-width="1.6" d="M1132.72,-860.81C1111.64,-845.81 1096,-825.94 1096,-800 1096,-800 1096,-800 1096,-510 1096,-483.74 1089.55,-475.54 1072,-456 1067.34,-450.81 1061.84,-446.11 1056.01,-441.92"/>
<polygon fill="#c77800" stroke="#c77800" stroke-width="1.6" points="1057.56,-438.74 1047.3,-436.13 1053.69,-444.58 1057.56,-438.74"/>
</g>
<!-- s0&#45;&gt;s1 -->
<g id="edge2" class="edge">
<title>s0&#45;&gt;s1</title>
<path fill="none" stroke="#c77800" stroke-width="1.6" d="M465.18,-777.95C517.69,-762.94 589.59,-742.4 644.28,-726.78"/>
<polygon fill="#c77800" stroke="#c77800" stroke-width="1.6" points="645.28,-730.13 653.93,-724.02 643.36,-723.4 645.28,-730.13"/>
<text text-anchor="middle" x="597.5" y="-747.6" font-family="Helvetica,sans-Serif" font-size="13.00">reads</text>
</g>
<!-- s2 -->
<g id="node6" class="node">
<title>s2</title>
<path fill="#fbbc04" stroke="#b06000" stroke-width="2" d="M1015.5,-628C1015.5,-628 772.5,-628 772.5,-628 766.5,-628 760.5,-622 760.5,-616 760.5,-616 760.5,-598 760.5,-598 760.5,-592 766.5,-586 772.5,-586 772.5,-586 1015.5,-586 1015.5,-586 1021.5,-586 1027.5,-592 1027.5,-598 1027.5,-598 1027.5,-616 1027.5,-616 1027.5,-622 1021.5,-628 1015.5,-628"/>
<text text-anchor="middle" x="894" y="-612" font-family="Helvetica,sans-Serif" font-size="15.00">S2 &#160;Assemble recruited reads</text>
<text text-anchor="middle" x="894" y="-595" font-family="Helvetica,sans-Serif" font-size="15.00">SPAdes multi&#45;k &#160;(k &lt; read length)</text>
</g>
<!-- s1&#45;&gt;s2 -->
<g id="edge4" class="edge">
<title>s1&#45;&gt;s2</title>
<path fill="none" stroke="#c77800" stroke-width="1.6" d="M760.47,-681.83C786.24,-667.59 820.96,-648.39 848.54,-633.14"/>
<polygon fill="#c77800" stroke="#c77800" stroke-width="1.6" points="850.53,-636.03 857.59,-628.13 847.15,-629.91 850.53,-636.03"/>
<text text-anchor="middle" x="893.5" y="-651.6" font-family="Helvetica,sans-Serif" font-size="13.00">recruited reads (rDNA)</text>
</g>
<!-- s3 -->
<g id="node7" class="node">
<title>s3</title>
<path fill="#fef7e0" stroke="#e8a33d" d="M1033,-532C1033,-532 785,-532 785,-532 779,-532 773,-526 773,-520 773,-520 773,-502 773,-502 773,-496 779,-490 785,-490 785,-490 1033,-490 1033,-490 1039,-490 1045,-496 1045,-502 1045,-502 1045,-520 1045,-520 1045,-526 1039,-532 1033,-532"/>
<text text-anchor="middle" x="909" y="-516" font-family="Helvetica,sans-Serif" font-size="15.00">S3 &#160;Resolve one repeat unit</text>
<text text-anchor="middle" x="909" y="-499" font-family="Helvetica,sans-Serif" font-size="15.00">BLAST seed vs contigs + scaffolds</text>
</g>
<!-- s2&#45;&gt;s3 -->
<g id="edge5" class="edge">
<title>s2&#45;&gt;s3</title>
<path fill="none" stroke="#c77800" stroke-width="1.6" d="M897.25,-585.6C899.27,-572.95 901.9,-556.47 904.16,-542.31"/>
<polygon fill="#c77800" stroke="#c77800" stroke-width="1.6" points="907.68,-542.46 905.8,-532.03 900.77,-541.36 907.68,-542.46"/>
<text text-anchor="middle" x="965.5" y="-555.6" font-family="Helvetica,sans-Serif" font-size="13.00">contigs + scaffolds</text>
</g>
<!-- s3&#45;&gt;s4 -->
<g id="edge6" class="edge">
<title>s3&#45;&gt;s4</title>
<path fill="none" stroke="#c77800" stroke-width="1.6" d="M929.4,-489.6C942.92,-476.08 960.81,-458.19 975.57,-443.43"/>
<polygon fill="#c77800" stroke="#c77800" stroke-width="1.6" points="978.37,-445.58 982.97,-436.03 973.42,-440.63 978.37,-445.58"/>
<text text-anchor="middle" x="1012.5" y="-459.6" font-family="Helvetica,sans-Serif" font-size="13.00">one repeat unit</text>
</g>
<!-- s5 -->
<g id="node9" class="node">
<title>s5</title>
<path fill="#fef7e0" stroke="#e8a33d" d="M1205,-340C1205,-340 801,-340 801,-340 795,-340 789,-334 789,-328 789,-328 789,-310 789,-310 789,-304 795,-298 801,-298 801,-298 1205,-298 1205,-298 1211,-298 1217,-304 1217,-310 1217,-310 1217,-328 1217,-328 1217,-334 1211,-340 1205,-340"/>
<text text-anchor="middle" x="1003" y="-324" font-family="Helvetica,sans-Serif" font-size="15.00">S5 &#160;Annotate + ITS barcode</text>
<text text-anchor="middle" x="1003" y="-307" font-family="Helvetica,sans-Serif" font-size="15.00">ITSx (18S / ITS1 / 5.8S / ITS2 / 26S) — barrnap fallback</text>
</g>
<!-- s4&#45;&gt;s5 -->
<g id="edge8" class="edge">
<title>s4&#45;&gt;s5</title>
<path fill="none" stroke="#c77800" stroke-width="1.6" d="M1003,-393.6C1003,-380.95 1003,-364.47 1003,-350.31"/>
<polygon fill="#c77800" stroke="#c77800" stroke-width="1.6" points="1006.5,-350.03 1003,-340.03 999.5,-350.03 1006.5,-350.03"/>
<text text-anchor="middle" x="1071" y="-363.6" font-family="Helvetica,sans-Serif" font-size="13.00">mature 18S&#45;26S unit</text>
</g>
<!-- s6 -->
<g id="node10" class="node">
<title>s6</title>
<path fill="#fef7e0" stroke="#e8a33d" d="M1133,-244C1133,-244 873,-244 873,-244 867,-244 861,-238 861,-232 861,-232 861,-214 861,-214 861,-208 867,-202 873,-202 873,-202 1133,-202 1133,-202 1139,-202 1145,-208 1145,-214 1145,-214 1145,-232 1145,-232 1145,-238 1139,-244 1133,-244"/>
<text text-anchor="middle" x="1003" y="-228" font-family="Helvetica,sans-Serif" font-size="15.00">S6 &#160;Ribotype heterozygosity</text>
<text text-anchor="middle" x="1003" y="-211" font-family="Helvetica,sans-Serif" font-size="15.00">bwa | samtools | bcftools &#160;(optional)</text>
</g>
<!-- s5&#45;&gt;s6 -->
<g id="edge9" class="edge">
<title>s5&#45;&gt;s6</title>
<path fill="none" stroke="#c77800" stroke-width="1.6" d="M1003,-297.6C1003,-284.95 1003,-268.47 1003,-254.31"/>
<polygon fill="#c77800" stroke="#c77800" stroke-width="1.6" points="1006.5,-254.03 1003,-244.03 999.5,-254.03 1006.5,-254.03"/>
<text text-anchor="middle" x="1053" y="-267.6" font-family="Helvetica,sans-Serif" font-size="13.00">consensus unit</text>
</g>
<!-- s7 -->
<g id="node11" class="node">
<title>s7</title>
<path fill="#fef7e0" stroke="#e8a33d" d="M953.5,-140C953.5,-140 792.5,-140 792.5,-140 786.5,-140 780.5,-134 780.5,-128 780.5,-128 780.5,-116 780.5,-116 780.5,-110 786.5,-104 792.5,-104 792.5,-104 953.5,-104 953.5,-104 959.5,-104 965.5,-110 965.5,-116 965.5,-116 965.5,-128 965.5,-128 965.5,-134 959.5,-140 953.5,-140"/>
<text text-anchor="middle" x="873" y="-118.5" font-family="Helvetica,sans-Serif" font-size="15.00">S7 &#160;Summary + report</text>
</g>
<!-- s6&#45;&gt;s7 -->
<g id="edge10" class="edge">
<title>s6&#45;&gt;s7</title>
<path fill="none" stroke="#c77800" stroke-width="1.6" d="M976.69,-201.97C955.51,-185.83 925.7,-163.14 903.48,-146.21"/>
<polygon fill="#c77800" stroke="#c77800" stroke-width="1.6" points="905.45,-143.31 895.37,-140.04 901.21,-148.88 905.45,-143.31"/>
</g>
<!-- rnote -->
<g id="node12" class="node">
<title>rnote</title>
<polygon fill="#fce8e6" stroke="#c5221f" points="1264.5,-161 997.5,-161 997.5,-83 1270.5,-83 1270.5,-155 1264.5,-161"/>
<polyline fill="none" stroke="#c5221f" points="1264.5,-161 1264.5,-155 "/>
<polyline fill="none" stroke="#c5221f" points="1270.5,-155 1264.5,-155 "/>
<text text-anchor="start" x="1005.5" y="-146.6" font-family="Helvetica,sans-Serif" font-size="13.00">ribotype_sites (&#45;&#45;call&#45;variants):</text>
<text text-anchor="start" x="1005.5" y="-132.6" font-family="Helvetica,sans-Serif" font-size="13.00"> &#160;map reads back to the unit</text>
<text text-anchor="start" x="1005.5" y="-118.6" font-family="Helvetica,sans-Serif" font-size="13.00"> &#160;minor allele &gt;= 10% at depth &gt;= 20</text>
<text text-anchor="start" x="1005.5" y="-104.6" font-family="Helvetica,sans-Serif" font-size="13.00"> &#160;high count &#45;&gt; heterogeneous array</text>
<text text-anchor="start" x="1005.5" y="-90.6" font-family="Helvetica,sans-Serif" font-size="13.00"> &#160;(hybrid / allopolyploidy signal)</text>
</g>
<!-- s6&#45;&gt;rnote -->
<g id="edge11" class="edge">
<title>s6&#45;&gt;rnote</title>
<path fill="none" stroke="#c5221f" stroke-width="1.6" stroke-dasharray="1,5" d="M1029.51,-201.97C1045.06,-190.21 1065.22,-174.98 1083.68,-161.03"/>
</g>
<!-- o_unit -->
<g id="node13" class="node">
<title>o_unit</title>
<polygon fill="#e6f4ea" stroke="#34a853" points="437,-42 253,-42 253,0 443,0 443,-36 437,-42"/>
<polyline fill="none" stroke="#34a853" points="437,-42 437,-36 "/>
<polyline fill="none" stroke="#34a853" points="443,-36 437,-36 "/>
<text text-anchor="middle" x="348" y="-26" font-family="Helvetica,sans-Serif" font-size="15.00">nrDNA_45S.fasta</text>
<text text-anchor="middle" x="348" y="-9" font-family="Helvetica,sans-Serif" font-size="15.00">(mature unit, 18S&#45;26S)</text>
</g>
<!-- s7&#45;&gt;o_unit -->
<g id="edge12" class="edge">
<title>s7&#45;&gt;o_unit</title>
<path fill="none" stroke="#c77800" stroke-width="1.6" d="M782.75,-103.98C691.29,-86.73 549.89,-60.07 453.35,-41.87"/>
<polygon fill="#c77800" stroke="#c77800" stroke-width="1.6" points="453.75,-38.38 443.28,-39.97 452.45,-45.26 453.75,-38.38"/>
</g>
<!-- o_its -->
<g id="node14" class="node">
<title>o_its</title>
<polygon fill="#e6f4ea" stroke="#34a853" points="672.5,-42 475.5,-42 475.5,0 678.5,0 678.5,-36 672.5,-42"/>
<polyline fill="none" stroke="#34a853" points="672.5,-42 672.5,-36 "/>
<polyline fill="none" stroke="#34a853" points="678.5,-36 672.5,-36 "/>
<text text-anchor="middle" x="577" y="-26" font-family="Helvetica,sans-Serif" font-size="15.00">its.fasta + its_parts.fasta</text>
<text text-anchor="middle" x="577" y="-9" font-family="Helvetica,sans-Serif" font-size="15.00">(ITS barcode)</text>
</g>
<!-- s7&#45;&gt;o_its -->
<!-- o_reg -->
<g id="node15" class="node">
<title>o_reg</title>
<polygon fill="#e6f4ea" stroke="#34a853" points="855,-42 711,-42 711,0 861,0 861,-36 855,-42"/>
<polyline fill="none" stroke="#34a853" points="855,-42 855,-36 "/>
<polyline fill="none" stroke="#34a853" points="861,-36 855,-36 "/>
<text text-anchor="middle" x="786" y="-26" font-family="Helvetica,sans-Serif" font-size="15.00">regions/</text>
<text text-anchor="middle" x="786" y="-9" font-family="Helvetica,sans-Serif" font-size="15.00">(five 45S regions)</text>
</g>
<!-- s7&#45;&gt;o_reg -->
<!-- o_gff -->
<g id="node16" class="node">
<title>o_gff</title>
<polygon fill="#e6f4ea" stroke="#34a853" points="1020.5,-39 893.5,-39 893.5,-3 1026.5,-3 1026.5,-33 1020.5,-39"/>
<polyline fill="none" stroke="#34a853" points="1020.5,-39 1020.5,-33 "/>
<polyline fill="none" stroke="#34a853" points="1026.5,-33 1020.5,-33 "/>
<text text-anchor="middle" x="960" y="-17.5" font-family="Helvetica,sans-Serif" font-size="15.00">annotation.gff3</text>
</g>
<!-- s7&#45;&gt;o_gff -->
<!-- o_rib -->
<g id="node17" class="node">
<title>o_rib</title>
<polygon fill="#e6f4ea" stroke="#34a853" points="1227.5,-39 1058.5,-39 1058.5,-3 1233.5,-3 1233.5,-33 1227.5,-39"/>
<polyline fill="none" stroke="#34a853" points="1227.5,-39 1227.5,-33 "/>
<polyline fill="none" stroke="#34a853" points="1233.5,-33 1227.5,-33 "/>
<text text-anchor="middle" x="1146" y="-17.5" font-family="Helvetica,sans-Serif" font-size="15.00">ribotype_variants.tsv</text>
</g>
<!-- s7&#45;&gt;o_rib -->
<!-- o_rep -->
<g id="node18" class="node">
<title>o_rep</title>
<polygon fill="#e6f4ea" stroke="#34a853" points="1464,-39 1266,-39 1266,-3 1470,-3 1470,-33 1464,-39"/>
<polyline fill="none" stroke="#34a853" points="1464,-39 1464,-33 "/>
<polyline fill="none" stroke="#34a853" points="1470,-33 1464,-33 "/>
<text text-anchor="middle" x="1368" y="-17.5" font-family="Helvetica,sans-Serif" font-size="15.00">summary.tsv + report.txt</text>
</g>
<!-- s7&#45;&gt;o_rep -->
</g>
</svg>
