<?xml version="1.0" encoding="UTF-8" standalone="no"?>
<!DOCTYPE svg PUBLIC "-//W3C//DTD SVG 1.1//EN"
 "http://www.w3.org/Graphics/SVG/1.1/DTD/svg11.dtd">
<!-- Generated by graphviz version 2.43.0 (0)
 -->
<!-- Title: ngs45 Pages: 1 -->
<svg width="1447pt" height="1228pt"
 viewBox="0.00 0.00 1446.50 1228.00" xmlns="http://www.w3.org/2000/svg" xmlns:xlink="http://www.w3.org/1999/xlink">
<g id="graph0" class="graph" transform="scale(1 1) rotate(0) translate(4 1224)">
<title>ngs45</title>
<polygon fill="white" stroke="transparent" points="-4,4 -4,-1224 1442.5,-1224 1442.5,4 -4,4"/>
<g id="clust1" class="cluster">
<title>cluster_inputs</title>
<polygon fill="white" stroke="#9aa0a6" stroke-dasharray="5,2" points="31,-1019 31,-1212 1321,-1212 1321,-1019 31,-1019"/>
<text text-anchor="middle" x="67.5" y="-1192.8" font-family="Helvetica,sans-Serif" font-size="19.00" fill="#5f6368">INPUT</text>
</g>
<!-- reads -->
<g id="node1" class="node">
<title>reads</title>
<polygon fill="#d2e3fc" stroke="black" points="416.88,-1175 116.42,-1175 39.12,-1027 339.58,-1027 416.88,-1175"/>
<text text-anchor="middle" x="228" y="-1118" font-family="Helvetica,sans-Serif" font-size="20.00">Illumina</text>
<text text-anchor="middle" x="228" y="-1096" font-family="Helvetica,sans-Serif" font-size="20.00">paired&#45;end reads</text>
<text text-anchor="middle" x="228" y="-1074" font-family="Helvetica,sans-Serif" font-size="20.00">(FASTQ[.gz])</text>
</g>
<!-- s0 -->
<g id="node4" class="node">
<title>s0</title>
<path fill="#fef7e0" stroke="#e8a33d" d="M450,-982C450,-982 262,-982 262,-982 256,-982 250,-976 250,-970 250,-970 250,-942 250,-942 250,-936 256,-930 262,-930 262,-930 450,-930 450,-930 456,-930 462,-936 462,-942 462,-942 462,-970 462,-970 462,-976 456,-982 450,-982"/>
<text text-anchor="middle" x="356" y="-962" font-family="Helvetica,sans-Serif" font-size="20.00">S0 &#160;QC / trim reads</text>
<text text-anchor="middle" x="356" y="-940" font-family="Helvetica,sans-Serif" font-size="20.00">cutadapt &#160;(optional)</text>
</g>
<!-- reads&#45;&gt;s0 -->
<g id="edge1" class="edge">
<title>reads&#45;&gt;s0</title>
<path fill="none" stroke="#c77800" stroke-width="1.8" d="M293.5,-1026.82C305.08,-1013.89 316.6,-1001.02 326.53,-989.92"/>
<polygon fill="#c77800" stroke="#c77800" stroke-width="1.8" points="329.4,-991.97 333.46,-982.18 324.18,-987.3 329.4,-991.97"/>
</g>
<!-- seed -->
<g id="node2" class="node">
<title>seed</title>
<polygon fill="#d2e3fc" stroke="black" points="831.11,-1175 514.37,-1175 432.89,-1027 749.63,-1027 831.11,-1175"/>
<text text-anchor="middle" x="632" y="-1118" font-family="Helvetica,sans-Serif" font-size="20.00">Bundled 45S seed</text>
<text text-anchor="middle" x="632" y="-1096" font-family="Helvetica,sans-Serif" font-size="20.00">Arabidopsis T2T</text>
<text text-anchor="middle" x="632" y="-1074" font-family="Helvetica,sans-Serif" font-size="20.00">(OR453402)</text>
</g>
<!-- s1 -->
<g id="node5" class="node">
<title>s1</title>
<path fill="#fef7e0" stroke="#e8a33d" d="M849,-867C849,-867 415,-867 415,-867 409,-867 403,-861 403,-855 403,-855 403,-827 403,-827 403,-821 409,-815 415,-815 415,-815 849,-815 849,-815 855,-815 861,-821 861,-827 861,-827 861,-855 861,-855 861,-861 855,-867 849,-867"/>
<text text-anchor="middle" x="632" y="-847" font-family="Helvetica,sans-Serif" font-size="20.00">S1 &#160;Bait rDNA reads</text>
<text text-anchor="middle" x="632" y="-825" font-family="Helvetica,sans-Serif" font-size="20.00">bowtie2 — iterative recruitment vs 45S seed</text>
</g>
<!-- seed&#45;&gt;s1 -->
<g id="edge3" class="edge">
<title>seed&#45;&gt;s1</title>
<path fill="none" stroke="#c77800" stroke-width="1.8" d="M632,-1026.76C632,-977.74 632,-915.41 632,-877.13"/>
<polygon fill="#c77800" stroke="#c77800" stroke-width="1.8" points="635.5,-877 632,-867 628.5,-877 635.5,-877"/>
</g>
<!-- cms -->
<g id="node3" class="node">
<title>cms</title>
<polygon fill="#d2e3fc" stroke="black" points="1313.04,-1175 942.33,-1175 846.96,-1027 1217.67,-1027 1313.04,-1175"/>
<text text-anchor="middle" x="1080" y="-1118" font-family="Helvetica,sans-Serif" font-size="20.00">Bundled Rfam</text>
<text text-anchor="middle" x="1080" y="-1096" font-family="Helvetica,sans-Serif" font-size="20.00">SSU+LSU CMs</text>
<text text-anchor="middle" x="1080" y="-1074" font-family="Helvetica,sans-Serif" font-size="20.00">(RF01960 / RF02543)</text>
</g>
<!-- s4 -->
<g id="node8" class="node">
<title>s4</title>
<path fill="#fef7e0" stroke="#e8a33d" d="M1112.5,-522C1112.5,-522 651.5,-522 651.5,-522 645.5,-522 639.5,-516 639.5,-510 639.5,-510 639.5,-482 639.5,-482 639.5,-476 645.5,-470 651.5,-470 651.5,-470 1112.5,-470 1112.5,-470 1118.5,-470 1124.5,-476 1124.5,-482 1124.5,-482 1124.5,-510 1124.5,-510 1124.5,-516 1118.5,-522 1112.5,-522"/>
<text text-anchor="middle" x="882" y="-502" font-family="Helvetica,sans-Serif" font-size="20.00">S4 &#160;Orient &amp; trim to mature unit (18S 5&#39;&#45;26S 3&#39;)</text>
<text text-anchor="middle" x="882" y="-480" font-family="Helvetica,sans-Serif" font-size="20.00">cmsearch vs Rfam SSU+LSU CMs</text>
</g>
<!-- cms&#45;&gt;s4 -->
<g id="edge7" class="edge">
<title>cms&#45;&gt;s4</title>
<path fill="none" stroke="#c77800" stroke-width="1.8" d="M1007.23,-1026.84C993.32,-1005.97 983,-982.05 983,-957 983,-957 983,-957 983,-610 983,-580.1 987.79,-568.03 970,-544 965.61,-538.07 960.24,-532.81 954.34,-528.16"/>
<polygon fill="#c77800" stroke="#c77800" stroke-width="1.8" points="956.17,-525.17 946.01,-522.2 952.1,-530.86 956.17,-525.17"/>
</g>
<!-- s0&#45;&gt;s1 -->
<g id="edge2" class="edge">
<title>s0&#45;&gt;s1</title>
<path fill="none" stroke="#c77800" stroke-width="1.8" d="M417.25,-929.92C459.95,-912.44 517.03,-889.07 561.61,-870.82"/>
<polygon fill="#c77800" stroke="#c77800" stroke-width="1.8" points="562.99,-874.04 570.92,-867.01 560.34,-867.56 562.99,-874.04"/>
<text text-anchor="middle" x="534" y="-894.4" font-family="Helvetica,sans-Serif" font-size="17.00">reads</text>
</g>
<!-- s2 -->
<g id="node6" class="node">
<title>s2</title>
<path fill="#fbbc04" stroke="#b06000" stroke-width="2" d="M938,-752C938,-752 618,-752 618,-752 612,-752 606,-746 606,-740 606,-740 606,-712 606,-712 606,-706 612,-700 618,-700 618,-700 938,-700 938,-700 944,-700 950,-706 950,-712 950,-712 950,-740 950,-740 950,-746 944,-752 938,-752"/>
<text text-anchor="middle" x="778" y="-732" font-family="Helvetica,sans-Serif" font-size="20.00">S2 &#160;Assemble recruited reads</text>
<text text-anchor="middle" x="778" y="-710" font-family="Helvetica,sans-Serif" font-size="20.00">SPAdes multi&#45;k &#160;(k &lt; read length)</text>
</g>
<!-- s1&#45;&gt;s2 -->
<g id="edge4" class="edge">
<title>s1&#45;&gt;s2</title>
<path fill="none" stroke="#c77800" stroke-width="1.8" d="M664.4,-814.92C686.05,-798.17 714.67,-776.02 737.77,-758.14"/>
<polygon fill="#c77800" stroke="#c77800" stroke-width="1.8" points="739.92,-760.9 745.69,-752.01 735.64,-755.36 739.92,-760.9"/>
<text text-anchor="middle" x="809" y="-779.4" font-family="Helvetica,sans-Serif" font-size="17.00">recruited reads (rDNA)</text>
</g>
<!-- s3 -->
<g id="node7" class="node">
<title>s3</title>
<path fill="#fef7e0" stroke="#e8a33d" d="M946,-637C946,-637 614,-637 614,-637 608,-637 602,-631 602,-625 602,-625 602,-597 602,-597 602,-591 608,-585 614,-585 614,-585 946,-585 946,-585 952,-585 958,-591 958,-597 958,-597 958,-625 958,-625 958,-631 952,-637 946,-637"/>
<text text-anchor="middle" x="780" y="-617" font-family="Helvetica,sans-Serif" font-size="20.00">S3 &#160;Resolve one repeat unit</text>
<text text-anchor="middle" x="780" y="-595" font-family="Helvetica,sans-Serif" font-size="20.00">BLAST seed vs contigs + scaffolds</text>
</g>
<!-- s2&#45;&gt;s3 -->
<g id="edge5" class="edge">
<title>s2&#45;&gt;s3</title>
<path fill="none" stroke="#c77800" stroke-width="1.8" d="M778.44,-699.92C778.72,-684.41 779.07,-664.28 779.38,-647.19"/>
<polygon fill="#c77800" stroke="#c77800" stroke-width="1.8" points="782.88,-647.07 779.56,-637.01 775.88,-646.94 782.88,-647.07"/>
<text text-anchor="middle" x="859.5" y="-664.4" font-family="Helvetica,sans-Serif" font-size="17.00">contigs + scaffolds</text>
</g>
<!-- s3&#45;&gt;s4 -->
<g id="edge6" class="edge">
<title>s3&#45;&gt;s4</title>
<path fill="none" stroke="#c77800" stroke-width="1.8" d="M802.64,-584.92C817.3,-568.68 836.54,-547.37 852.4,-529.79"/>
<polygon fill="#c77800" stroke="#c77800" stroke-width="1.8" points="855.32,-531.78 859.43,-522.01 850.13,-527.09 855.32,-531.78"/>
<text text-anchor="middle" x="902" y="-549.4" font-family="Helvetica,sans-Serif" font-size="17.00">one repeat unit</text>
</g>
<!-- s5 -->
<g id="node9" class="node">
<title>s5</title>
<path fill="#fef7e0" stroke="#e8a33d" d="M1148,-407C1148,-407 616,-407 616,-407 610,-407 604,-401 604,-395 604,-395 604,-367 604,-367 604,-361 610,-355 616,-355 616,-355 1148,-355 1148,-355 1154,-355 1160,-361 1160,-367 1160,-367 1160,-395 1160,-395 1160,-401 1154,-407 1148,-407"/>
<text text-anchor="middle" x="882" y="-387" font-family="Helvetica,sans-Serif" font-size="20.00">S5 &#160;Annotate + ITS barcode</text>
<text text-anchor="middle" x="882" y="-365" font-family="Helvetica,sans-Serif" font-size="20.00">ITSx (18S / ITS1 / 5.8S / ITS2 / 26S) — barrnap fallback</text>
</g>
<!-- s4&#45;&gt;s5 -->
<g id="edge8" class="edge">
<title>s4&#45;&gt;s5</title>
<path fill="none" stroke="#c77800" stroke-width="1.8" d="M882,-469.92C882,-454.41 882,-434.28 882,-417.19"/>
<polygon fill="#c77800" stroke="#c77800" stroke-width="1.8" points="885.5,-417.01 882,-407.01 878.5,-417.01 885.5,-417.01"/>
<text text-anchor="middle" x="969" y="-434.4" font-family="Helvetica,sans-Serif" font-size="17.00">mature 18S&#45;26S unit</text>
</g>
<!-- s6 -->
<g id="node10" class="node">
<title>s6</title>
<path fill="#fef7e0" stroke="#e8a33d" d="M1054.5,-292C1054.5,-292 709.5,-292 709.5,-292 703.5,-292 697.5,-286 697.5,-280 697.5,-280 697.5,-252 697.5,-252 697.5,-246 703.5,-240 709.5,-240 709.5,-240 1054.5,-240 1054.5,-240 1060.5,-240 1066.5,-246 1066.5,-252 1066.5,-252 1066.5,-280 1066.5,-280 1066.5,-286 1060.5,-292 1054.5,-292"/>
<text text-anchor="middle" x="882" y="-272" font-family="Helvetica,sans-Serif" font-size="20.00">S6 &#160;Ribotype heterozygosity</text>
<text text-anchor="middle" x="882" y="-250" font-family="Helvetica,sans-Serif" font-size="20.00">bwa | samtools | bcftools &#160;(optional)</text>
</g>
<!-- s5&#45;&gt;s6 -->
<g id="edge9" class="edge">
<title>s5&#45;&gt;s6</title>
<path fill="none" stroke="#c77800" stroke-width="1.8" d="M882,-354.92C882,-339.41 882,-319.28 882,-302.19"/>
<polygon fill="#c77800" stroke="#c77800" stroke-width="1.8" points="885.5,-302.01 882,-292.01 878.5,-302.01 885.5,-302.01"/>
<text text-anchor="middle" x="945.5" y="-319.4" font-family="Helvetica,sans-Serif" font-size="17.00">consensus unit</text>
</g>
<!-- s7 -->
<g id="node11" class="node">
<title>s7</title>
<path fill="#fef7e0" stroke="#e8a33d" d="M840,-164C840,-164 624,-164 624,-164 618,-164 612,-158 612,-152 612,-152 612,-140 612,-140 612,-134 618,-128 624,-128 624,-128 840,-128 840,-128 846,-128 852,-134 852,-140 852,-140 852,-152 852,-152 852,-158 846,-164 840,-164"/>
<text text-anchor="middle" x="732" y="-141" font-family="Helvetica,sans-Serif" font-size="20.00">S7 &#160;Summary + report</text>
</g>
<!-- s6&#45;&gt;s7 -->
<g id="edge10" class="edge">
<title>s6&#45;&gt;s7</title>
<path fill="none" stroke="#c77800" stroke-width="1.8" d="M850.19,-239.98C824.12,-219.46 787.48,-190.64 761.93,-170.54"/>
<polygon fill="#c77800" stroke="#c77800" stroke-width="1.8" points="764.08,-167.78 754.05,-164.35 759.75,-173.28 764.08,-167.78"/>
</g>
<!-- rnote -->
<g id="node12" class="node">
<title>rnote</title>
<polygon fill="#fce8e6" stroke="#c5221f" points="1190,-195 868,-195 868,-97 1196,-97 1196,-189 1190,-195"/>
<polyline fill="none" stroke="#c5221f" points="1190,-195 1190,-189 "/>
<polyline fill="none" stroke="#c5221f" points="1196,-189 1190,-189 "/>
<text text-anchor="start" x="876" y="-178.2" font-family="Helvetica,sans-Serif" font-size="16.00">ribotype_sites (&#45;&#45;call&#45;variants):</text>
<text text-anchor="start" x="876" y="-160.2" font-family="Helvetica,sans-Serif" font-size="16.00"> &#160;map reads back to the unit</text>
<text text-anchor="start" x="876" y="-142.2" font-family="Helvetica,sans-Serif" font-size="16.00"> &#160;minor allele &gt;= 10% at depth &gt;= 20</text>
<text text-anchor="start" x="876" y="-124.2" font-family="Helvetica,sans-Serif" font-size="16.00"> &#160;high count &#45;&gt; heterogeneous array</text>
<text text-anchor="start" x="876" y="-106.2" font-family="Helvetica,sans-Serif" font-size="16.00"> &#160;(hybrid / allopolyploidy signal)</text>
</g>
<!-- s6&#45;&gt;rnote -->
<g id="edge11" class="edge">
<title>s6&#45;&gt;rnote</title>
<path fill="none" stroke="#c5221f" stroke-width="1.8" stroke-dasharray="1,5" d="M913.81,-239.98C930.41,-226.92 951.29,-210.49 970.86,-195.1"/>
</g>
<!-- o_unit -->
<g id="node13" class="node">
<title>o_unit</title>
<polygon fill="#e6f4ea" stroke="#34a853" points="238,-52 0,-52 0,0 244,0 244,-46 238,-52"/>
<polyline fill="none" stroke="#34a853" points="238,-52 238,-46 "/>
<polyline fill="none" stroke="#34a853" points="244,-46 238,-46 "/>
<text text-anchor="middle" x="122" y="-32" font-family="Helvetica,sans-Serif" font-size="20.00">nrDNA_45S.fasta</text>
<text text-anchor="middle" x="122" y="-10" font-family="Helvetica,sans-Serif" font-size="20.00">(mature unit, 18S&#45;26S)</text>
</g>
<!-- s7&#45;&gt;o_unit -->
<g id="edge12" class="edge">
<title>s7&#45;&gt;o_unit</title>
<path fill="none" stroke="#c77800" stroke-width="1.8" d="M643.95,-127.97C541.74,-108.2 372.13,-75.39 254.1,-52.55"/>
<polygon fill="#c77800" stroke="#c77800" stroke-width="1.8" points="254.76,-49.12 244.27,-50.65 253.43,-55.99 254.76,-49.12"/>
</g>
<!-- o_its -->
<g id="node14" class="node">
<title>o_its</title>
<polygon fill="#e6f4ea" stroke="#34a853" points="516,-52 260,-52 260,0 522,0 522,-46 516,-52"/>
<polyline fill="none" stroke="#34a853" points="516,-52 516,-46 "/>
<polyline fill="none" stroke="#34a853" points="522,-46 516,-46 "/>
<text text-anchor="middle" x="391" y="-32" font-family="Helvetica,sans-Serif" font-size="20.00">its.fasta + its_parts.fasta</text>
<text text-anchor="middle" x="391" y="-10" font-family="Helvetica,sans-Serif" font-size="20.00">(ITS barcode)</text>
</g>
<!-- s7&#45;&gt;o_its -->
<!-- o_reg -->
<g id="node15" class="node">
<title>o_reg</title>
<polygon fill="#e6f4ea" stroke="#34a853" points="723.5,-52 538.5,-52 538.5,0 729.5,0 729.5,-46 723.5,-52"/>
<polyline fill="none" stroke="#34a853" points="723.5,-52 723.5,-46 "/>
<polyline fill="none" stroke="#34a853" points="729.5,-46 723.5,-46 "/>
<text text-anchor="middle" x="634" y="-32" font-family="Helvetica,sans-Serif" font-size="20.00">regions/</text>
<text text-anchor="middle" x="634" y="-10" font-family="Helvetica,sans-Serif" font-size="20.00">(five 45S regions)</text>
</g>
<!-- s7&#45;&gt;o_reg -->
<!-- o_gff -->
<g id="node16" class="node">
<title>o_gff</title>
<polygon fill="#e6f4ea" stroke="#34a853" points="908,-44 746,-44 746,-8 914,-8 914,-38 908,-44"/>
<polyline fill="none" stroke="#34a853" points="908,-44 908,-38 "/>
<polyline fill="none" stroke="#34a853" points="914,-38 908,-38 "/>
<text text-anchor="middle" x="830" y="-21" font-family="Helvetica,sans-Serif" font-size="20.00">annotation.gff3</text>
</g>
<!-- s7&#45;&gt;o_gff -->
<!-- o_rib -->
<g id="node17" class="node">
<title>o_rib</title>
<polygon fill="#e6f4ea" stroke="#34a853" points="1149.5,-44 930.5,-44 930.5,-8 1155.5,-8 1155.5,-38 1149.5,-44"/>
<polyline fill="none" stroke="#34a853" points="1149.5,-44 1149.5,-38 "/>
<polyline fill="none" stroke="#34a853" points="1155.5,-38 1149.5,-38 "/>
<text text-anchor="middle" x="1043" y="-21" font-family="Helvetica,sans-Serif" font-size="20.00">ribotype_variants.tsv</text>
</g>
<!-- s7&#45;&gt;o_rib -->
<!-- o_rep -->
<g id="node18" class="node">
<title>o_rep</title>
<polygon fill="#e6f4ea" stroke="#34a853" points="1432.5,-44 1171.5,-44 1171.5,-8 1438.5,-8 1438.5,-38 1432.5,-44"/>
<polyline fill="none" stroke="#34a853" points="1432.5,-44 1432.5,-38 "/>
<polyline fill="none" stroke="#34a853" points="1438.5,-38 1432.5,-38 "/>
<text text-anchor="middle" x="1305" y="-21" font-family="Helvetica,sans-Serif" font-size="20.00">summary.tsv + report.txt</text>
</g>
<!-- s7&#45;&gt;o_rep -->
</g>
</svg>
