<?xml version="1.0" encoding="UTF-8" standalone="no"?>
<!DOCTYPE svg PUBLIC "-//W3C//DTD SVG 1.1//EN"
 "http://www.w3.org/Graphics/SVG/1.1/DTD/svg11.dtd">
<!-- Generated by graphviz version 2.43.0 (0)
 -->
<!-- Title: ngs45 Pages: 1 -->
<svg width="1539pt" height="1262pt"
 viewBox="0.00 0.00 1538.50 1262.00" xmlns="http://www.w3.org/2000/svg" xmlns:xlink="http://www.w3.org/1999/xlink">
<g id="graph0" class="graph" transform="scale(1 1) rotate(0) translate(4 1258)">
<title>ngs45</title>
<polygon fill="white" stroke="transparent" points="-4,4 -4,-1258 1534.5,-1258 1534.5,4 -4,4"/>
<g id="clust1" class="cluster">
<title>cluster_inputs</title>
<polygon fill="white" stroke="#9aa0a6" stroke-dasharray="5,2" points="37.5,-1046 37.5,-1246 1398.5,-1246 1398.5,-1046 37.5,-1046"/>
<text text-anchor="middle" x="76" y="-1226" font-family="Helvetica,sans-Serif" font-size="20.00" fill="#5f6368">INPUT</text>
</g>
<!-- reads -->
<g id="node1" class="node">
<title>reads</title>
<polygon fill="#d2e3fc" stroke="black" points="443.61,-1208 126.87,-1208 45.39,-1054 362.13,-1054 443.61,-1208"/>
<text text-anchor="middle" x="244.5" y="-1148.7" font-family="Helvetica,sans-Serif" font-size="21.00">Illumina</text>
<text text-anchor="middle" x="244.5" y="-1125.7" font-family="Helvetica,sans-Serif" font-size="21.00">paired&#45;end reads</text>
<text text-anchor="middle" x="244.5" y="-1102.7" font-family="Helvetica,sans-Serif" font-size="21.00">(FASTQ[.gz])</text>
</g>
<!-- s0 -->
<g id="node4" class="node">
<title>s0</title>
<path fill="#fef7e0" stroke="#e8a33d" d="M480.5,-1009C480.5,-1009 278.5,-1009 278.5,-1009 272.5,-1009 266.5,-1003 266.5,-997 266.5,-997 266.5,-967 266.5,-967 266.5,-961 272.5,-955 278.5,-955 278.5,-955 480.5,-955 480.5,-955 486.5,-955 492.5,-961 492.5,-967 492.5,-967 492.5,-997 492.5,-997 492.5,-1003 486.5,-1009 480.5,-1009"/>
<text text-anchor="middle" x="379.5" y="-988.2" font-family="Helvetica,sans-Serif" font-size="21.00">S0 &#160;QC / trim reads</text>
<text text-anchor="middle" x="379.5" y="-965.2" font-family="Helvetica,sans-Serif" font-size="21.00">cutadapt &#160;(optional)</text>
</g>
<!-- reads&#45;&gt;s0 -->
<g id="edge1" class="edge">
<title>reads&#45;&gt;s0</title>
<path fill="none" stroke="#c77800" stroke-width="1.8" d="M314.37,-1053.92C326.4,-1040.82 338.32,-1027.84 348.61,-1016.63"/>
<polygon fill="#c77800" stroke="#c77800" stroke-width="1.8" points="351.27,-1018.91 355.46,-1009.18 346.12,-1014.18 351.27,-1018.91"/>
</g>
<!-- seed -->
<g id="node2" class="node">
<title>seed</title>
<polygon fill="#d2e3fc" stroke="black" points="883,-1208 546.55,-1208 460,-1054 796.45,-1054 883,-1208"/>
<text text-anchor="middle" x="671.5" y="-1148.7" font-family="Helvetica,sans-Serif" font-size="21.00">Bundled 45S seed</text>
<text text-anchor="middle" x="671.5" y="-1125.7" font-family="Helvetica,sans-Serif" font-size="21.00">Arabidopsis T2T</text>
<text text-anchor="middle" x="671.5" y="-1102.7" font-family="Helvetica,sans-Serif" font-size="21.00">(OR453402)</text>
</g>
<!-- s1 -->
<g id="node5" class="node">
<title>s1</title>
<path fill="#fef7e0" stroke="#e8a33d" d="M904,-891C904,-891 439,-891 439,-891 433,-891 427,-885 427,-879 427,-879 427,-849 427,-849 427,-843 433,-837 439,-837 439,-837 904,-837 904,-837 910,-837 916,-843 916,-849 916,-849 916,-879 916,-879 916,-885 910,-891 904,-891"/>
<text text-anchor="middle" x="671.5" y="-870.2" font-family="Helvetica,sans-Serif" font-size="21.00">S1 &#160;Bait rDNA reads</text>
<text text-anchor="middle" x="671.5" y="-847.2" font-family="Helvetica,sans-Serif" font-size="21.00">bowtie2 — iterative recruitment vs 45S seed</text>
</g>
<!-- seed&#45;&gt;s1 -->
<g id="edge3" class="edge">
<title>seed&#45;&gt;s1</title>
<path fill="none" stroke="#c77800" stroke-width="1.8" d="M671.5,-1053.71C671.5,-1003.67 671.5,-940.51 671.5,-901.44"/>
<polygon fill="#c77800" stroke="#c77800" stroke-width="1.8" points="675,-901.09 671.5,-891.09 668,-901.09 675,-901.09"/>
</g>
<!-- cms -->
<g id="node3" class="node">
<title>cms</title>
<polygon fill="#d2e3fc" stroke="black" points="1390.42,-1208 999.22,-1208 898.58,-1054 1289.78,-1054 1390.42,-1208"/>
<text text-anchor="middle" x="1144.5" y="-1148.7" font-family="Helvetica,sans-Serif" font-size="21.00">Bundled Rfam</text>
<text text-anchor="middle" x="1144.5" y="-1125.7" font-family="Helvetica,sans-Serif" font-size="21.00">SSU+LSU CMs</text>
<text text-anchor="middle" x="1144.5" y="-1102.7" font-family="Helvetica,sans-Serif" font-size="21.00">(RF01960 / RF02543)</text>
</g>
<!-- s4 -->
<g id="node8" class="node">
<title>s4</title>
<path fill="#fef7e0" stroke="#e8a33d" d="M1183,-537C1183,-537 688,-537 688,-537 682,-537 676,-531 676,-525 676,-525 676,-495 676,-495 676,-489 682,-483 688,-483 688,-483 1183,-483 1183,-483 1189,-483 1195,-489 1195,-495 1195,-495 1195,-525 1195,-525 1195,-531 1189,-537 1183,-537"/>
<text text-anchor="middle" x="935.5" y="-516.2" font-family="Helvetica,sans-Serif" font-size="21.00">S4 &#160;Orient &amp; trim to mature unit (18S 5&#39;&#45;26S 3&#39;)</text>
<text text-anchor="middle" x="935.5" y="-493.2" font-family="Helvetica,sans-Serif" font-size="21.00">cmsearch vs Rfam SSU+LSU CMs</text>
</g>
<!-- cms&#45;&gt;s4 -->
<g id="edge7" class="edge">
<title>cms&#45;&gt;s4</title>
<path fill="none" stroke="#c77800" stroke-width="1.8" d="M1067.19,-1053.89C1052.97,-1032.71 1042.5,-1008.47 1042.5,-983 1042.5,-983 1042.5,-983 1042.5,-627 1042.5,-596.23 1047.97,-583.61 1029.5,-559 1025.04,-553.06 1019.63,-547.79 1013.69,-543.14"/>
<polygon fill="#c77800" stroke="#c77800" stroke-width="1.8" points="1015.47,-540.11 1005.29,-537.16 1011.41,-545.81 1015.47,-540.11"/>
</g>
<!-- s0&#45;&gt;s1 -->
<g id="edge2" class="edge">
<title>s0&#45;&gt;s1</title>
<path fill="none" stroke="#c77800" stroke-width="1.8" d="M445.03,-954.97C489.94,-937.13 549.63,-913.41 596.45,-894.81"/>
<polygon fill="#c77800" stroke="#c77800" stroke-width="1.8" points="597.93,-897.99 605.94,-891.05 595.35,-891.49 597.93,-897.99"/>
<text text-anchor="middle" x="568.5" y="-918.6" font-family="Helvetica,sans-Serif" font-size="18.00">reads</text>
</g>
<!-- s2 -->
<g id="node6" class="node">
<title>s2</title>
<path fill="#fbbc04" stroke="#b06000" stroke-width="2" d="M996.5,-773C996.5,-773 652.5,-773 652.5,-773 646.5,-773 640.5,-767 640.5,-761 640.5,-761 640.5,-731 640.5,-731 640.5,-725 646.5,-719 652.5,-719 652.5,-719 996.5,-719 996.5,-719 1002.5,-719 1008.5,-725 1008.5,-731 1008.5,-731 1008.5,-761 1008.5,-761 1008.5,-767 1002.5,-773 996.5,-773"/>
<text text-anchor="middle" x="824.5" y="-752.2" font-family="Helvetica,sans-Serif" font-size="21.00">S2 &#160;Assemble recruited reads</text>
<text text-anchor="middle" x="824.5" y="-729.2" font-family="Helvetica,sans-Serif" font-size="21.00">SPAdes multi&#45;k &#160;(k &lt; read length)</text>
</g>
<!-- s1&#45;&gt;s2 -->
<g id="edge4" class="edge">
<title>s1&#45;&gt;s2</title>
<path fill="none" stroke="#c77800" stroke-width="1.8" d="M705.84,-836.97C728.3,-819.94 757.81,-797.56 781.79,-779.38"/>
<polygon fill="#c77800" stroke="#c77800" stroke-width="1.8" points="784.16,-781.98 790.01,-773.15 779.93,-776.4 784.16,-781.98"/>
<text text-anchor="middle" x="859" y="-800.6" font-family="Helvetica,sans-Serif" font-size="18.00">recruited reads (rDNA)</text>
</g>
<!-- s3 -->
<g id="node7" class="node">
<title>s3</title>
<path fill="#fef7e0" stroke="#e8a33d" d="M1005,-655C1005,-655 650,-655 650,-655 644,-655 638,-649 638,-643 638,-643 638,-613 638,-613 638,-607 644,-601 650,-601 650,-601 1005,-601 1005,-601 1011,-601 1017,-607 1017,-613 1017,-613 1017,-643 1017,-643 1017,-649 1011,-655 1005,-655"/>
<text text-anchor="middle" x="827.5" y="-634.2" font-family="Helvetica,sans-Serif" font-size="21.00">S3 &#160;Resolve one repeat unit</text>
<text text-anchor="middle" x="827.5" y="-611.2" font-family="Helvetica,sans-Serif" font-size="21.00">BLAST seed vs contigs + scaffolds</text>
</g>
<!-- s2&#45;&gt;s3 -->
<g id="edge5" class="edge">
<title>s2&#45;&gt;s3</title>
<path fill="none" stroke="#c77800" stroke-width="1.8" d="M825.17,-718.97C825.58,-703.26 826.1,-683 826.55,-665.68"/>
<polygon fill="#c77800" stroke="#c77800" stroke-width="1.8" points="830.06,-665.43 826.82,-655.35 823.06,-665.25 830.06,-665.43"/>
<text text-anchor="middle" x="912" y="-682.6" font-family="Helvetica,sans-Serif" font-size="18.00">contigs + scaffolds</text>
</g>
<!-- s3&#45;&gt;s4 -->
<g id="edge6" class="edge">
<title>s3&#45;&gt;s4</title>
<path fill="none" stroke="#c77800" stroke-width="1.8" d="M851.2,-600.71C862.69,-588.03 876.74,-572.65 889.5,-559 893.9,-554.3 898.56,-549.36 903.17,-544.53"/>
<polygon fill="#c77800" stroke="#c77800" stroke-width="1.8" points="905.94,-546.69 910.31,-537.05 900.88,-541.86 905.94,-546.69"/>
<text text-anchor="middle" x="959.5" y="-564.6" font-family="Helvetica,sans-Serif" font-size="18.00">one repeat unit</text>
</g>
<!-- s5 -->
<g id="node9" class="node">
<title>s5</title>
<path fill="#fef7e0" stroke="#e8a33d" d="M1219,-419C1219,-419 652,-419 652,-419 646,-419 640,-413 640,-407 640,-407 640,-377 640,-377 640,-371 646,-365 652,-365 652,-365 1219,-365 1219,-365 1225,-365 1231,-371 1231,-377 1231,-377 1231,-407 1231,-407 1231,-413 1225,-419 1219,-419"/>
<text text-anchor="middle" x="935.5" y="-398.2" font-family="Helvetica,sans-Serif" font-size="21.00">S5 &#160;Annotate + ITS barcode</text>
<text text-anchor="middle" x="935.5" y="-375.2" font-family="Helvetica,sans-Serif" font-size="21.00">ITSx (18S / ITS1 / 5.8S / ITS2 / 26S) — barrnap fallback</text>
</g>
<!-- s4&#45;&gt;s5 -->
<g id="edge8" class="edge">
<title>s4&#45;&gt;s5</title>
<path fill="none" stroke="#c77800" stroke-width="1.8" d="M935.5,-482.97C935.5,-467.26 935.5,-447 935.5,-429.68"/>
<polygon fill="#c77800" stroke="#c77800" stroke-width="1.8" points="939,-429.35 935.5,-419.35 932,-429.35 939,-429.35"/>
<text text-anchor="middle" x="1029" y="-446.6" font-family="Helvetica,sans-Serif" font-size="18.00">mature 18S&#45;26S unit</text>
</g>
<!-- s6 -->
<g id="node10" class="node">
<title>s6</title>
<path fill="#fef7e0" stroke="#e8a33d" d="M1121,-301C1121,-301 750,-301 750,-301 744,-301 738,-295 738,-289 738,-289 738,-259 738,-259 738,-253 744,-247 750,-247 750,-247 1121,-247 1121,-247 1127,-247 1133,-253 1133,-259 1133,-259 1133,-289 1133,-289 1133,-295 1127,-301 1121,-301"/>
<text text-anchor="middle" x="935.5" y="-280.2" font-family="Helvetica,sans-Serif" font-size="21.00">S6 &#160;Ribotype heterozygosity</text>
<text text-anchor="middle" x="935.5" y="-257.2" font-family="Helvetica,sans-Serif" font-size="21.00">bwa | samtools | bcftools &#160;(optional)</text>
</g>
<!-- s5&#45;&gt;s6 -->
<g id="edge9" class="edge">
<title>s5&#45;&gt;s6</title>
<path fill="none" stroke="#c77800" stroke-width="1.8" d="M935.5,-364.97C935.5,-349.26 935.5,-329 935.5,-311.68"/>
<polygon fill="#c77800" stroke="#c77800" stroke-width="1.8" points="939,-311.35 935.5,-301.35 932,-311.35 939,-311.35"/>
<text text-anchor="middle" x="1003.5" y="-328.6" font-family="Helvetica,sans-Serif" font-size="18.00">consensus unit</text>
</g>
<!-- s7 -->
<g id="node11" class="node">
<title>s7</title>
<path fill="#fef7e0" stroke="#e8a33d" d="M894.5,-168.5C894.5,-168.5 664.5,-168.5 664.5,-168.5 658.5,-168.5 652.5,-162.5 652.5,-156.5 652.5,-156.5 652.5,-144.5 652.5,-144.5 652.5,-138.5 658.5,-132.5 664.5,-132.5 664.5,-132.5 894.5,-132.5 894.5,-132.5 900.5,-132.5 906.5,-138.5 906.5,-144.5 906.5,-144.5 906.5,-156.5 906.5,-156.5 906.5,-162.5 900.5,-168.5 894.5,-168.5"/>
<text text-anchor="middle" x="779.5" y="-145.2" font-family="Helvetica,sans-Serif" font-size="21.00">S7 &#160;Summary + report</text>
</g>
<!-- s6&#45;&gt;s7 -->
<g id="edge10" class="edge">
<title>s6&#45;&gt;s7</title>
<path fill="none" stroke="#c77800" stroke-width="1.8" d="M902.03,-246.94C874.57,-225.54 836.02,-195.52 809.54,-174.89"/>
<polygon fill="#c77800" stroke="#c77800" stroke-width="1.8" points="811.43,-171.93 801.39,-168.55 807.13,-177.45 811.43,-171.93"/>
</g>
<!-- rnote -->
<g id="node12" class="node">
<title>rnote</title>
<polygon fill="#fce8e6" stroke="#c5221f" points="1256,-202 923,-202 923,-99 1262,-99 1262,-196 1256,-202"/>
<polyline fill="none" stroke="#c5221f" points="1256,-202 1256,-196 "/>
<polyline fill="none" stroke="#c5221f" points="1262,-196 1256,-196 "/>
<text text-anchor="start" x="931" y="-184.4" font-family="Helvetica,sans-Serif" font-size="17.00">ribotype_sites (&#45;&#45;call&#45;variants):</text>
<text text-anchor="start" x="931" y="-165.4" font-family="Helvetica,sans-Serif" font-size="17.00"> &#160;map reads back to the unit</text>
<text text-anchor="start" x="931" y="-146.4" font-family="Helvetica,sans-Serif" font-size="17.00"> &#160;minor allele &gt;= 10% at depth &gt;= 20</text>
<text text-anchor="start" x="931" y="-127.4" font-family="Helvetica,sans-Serif" font-size="17.00"> &#160;high count &#45;&gt; heterogeneous array</text>
<text text-anchor="start" x="931" y="-108.4" font-family="Helvetica,sans-Serif" font-size="17.00"> &#160;(hybrid / allopolyploidy signal)</text>
</g>
<!-- s6&#45;&gt;rnote -->
<g id="edge11" class="edge">
<title>s6&#45;&gt;rnote</title>
<path fill="none" stroke="#c5221f" stroke-width="1.8" stroke-dasharray="1,5" d="M969.18,-246.94C986.12,-233.83 1007.25,-217.48 1027.2,-202.03"/>
</g>
<!-- o_unit -->
<g id="node13" class="node">
<title>o_unit</title>
<polygon fill="#e6f4ea" stroke="#34a853" points="253,-54 0,-54 0,0 259,0 259,-48 253,-54"/>
<polyline fill="none" stroke="#34a853" points="253,-54 253,-48 "/>
<polyline fill="none" stroke="#34a853" points="259,-48 253,-48 "/>
<text text-anchor="middle" x="129.5" y="-33.2" font-family="Helvetica,sans-Serif" font-size="21.00">nrDNA_45S.fasta</text>
<text text-anchor="middle" x="129.5" y="-10.2" font-family="Helvetica,sans-Serif" font-size="21.00">(mature unit, 18S&#45;26S)</text>
</g>
<!-- s7&#45;&gt;o_unit -->
<g id="edge12" class="edge">
<title>s7&#45;&gt;o_unit</title>
<path fill="none" stroke="#c77800" stroke-width="1.8" d="M687.93,-132.47C587.68,-113.82 421.9,-82.94 269.19,-54.32"/>
<polygon fill="#c77800" stroke="#c77800" stroke-width="1.8" points="269.62,-50.84 259.15,-52.43 268.33,-57.72 269.62,-50.84"/>
</g>
<!-- o_its -->
<g id="node14" class="node">
<title>o_its</title>
<polygon fill="#e6f4ea" stroke="#34a853" points="551.5,-54 275.5,-54 275.5,0 557.5,0 557.5,-48 551.5,-54"/>
<polyline fill="none" stroke="#34a853" points="551.5,-54 551.5,-48 "/>
<polyline fill="none" stroke="#34a853" points="557.5,-48 551.5,-48 "/>
<text text-anchor="middle" x="416.5" y="-33.2" font-family="Helvetica,sans-Serif" font-size="21.00">its.fasta + its_parts.fasta</text>
<text text-anchor="middle" x="416.5" y="-10.2" font-family="Helvetica,sans-Serif" font-size="21.00">(ITS barcode)</text>
</g>
<!-- s7&#45;&gt;o_its -->
<!-- o_reg -->
<g id="node15" class="node">
<title>o_reg</title>
<polygon fill="#e6f4ea" stroke="#34a853" points="771.5,-54 573.5,-54 573.5,0 777.5,0 777.5,-48 771.5,-54"/>
<polyline fill="none" stroke="#34a853" points="771.5,-54 771.5,-48 "/>
<polyline fill="none" stroke="#34a853" points="777.5,-48 771.5,-48 "/>
<text text-anchor="middle" x="675.5" y="-33.2" font-family="Helvetica,sans-Serif" font-size="21.00">regions/</text>
<text text-anchor="middle" x="675.5" y="-10.2" font-family="Helvetica,sans-Serif" font-size="21.00">(five 45S regions)</text>
</g>
<!-- s7&#45;&gt;o_reg -->
<!-- o_gff -->
<g id="node16" class="node">
<title>o_gff</title>
<polygon fill="#e6f4ea" stroke="#34a853" points="967,-45 794,-45 794,-9 973,-9 973,-39 967,-45"/>
<polyline fill="none" stroke="#34a853" points="967,-45 967,-39 "/>
<polyline fill="none" stroke="#34a853" points="973,-39 967,-39 "/>
<text text-anchor="middle" x="883.5" y="-21.7" font-family="Helvetica,sans-Serif" font-size="21.00">annotation.gff3</text>
</g>
<!-- s7&#45;&gt;o_gff -->
<!-- o_rib -->
<g id="node17" class="node">
<title>o_rib</title>
<polygon fill="#e6f4ea" stroke="#34a853" points="1224,-45 989,-45 989,-9 1230,-9 1230,-39 1224,-45"/>
<polyline fill="none" stroke="#34a853" points="1224,-45 1224,-39 "/>
<polyline fill="none" stroke="#34a853" points="1230,-39 1224,-39 "/>
<text text-anchor="middle" x="1109.5" y="-21.7" font-family="Helvetica,sans-Serif" font-size="21.00">ribotype_variants.tsv</text>
</g>
<!-- s7&#45;&gt;o_rib -->
<!-- o_rep -->
<g id="node18" class="node">
<title>o_rep</title>
<polygon fill="#e6f4ea" stroke="#34a853" points="1524.5,-45 1246.5,-45 1246.5,-9 1530.5,-9 1530.5,-39 1524.5,-45"/>
<polyline fill="none" stroke="#34a853" points="1524.5,-45 1524.5,-39 "/>
<polyline fill="none" stroke="#34a853" points="1530.5,-39 1524.5,-39 "/>
<text text-anchor="middle" x="1388.5" y="-21.7" font-family="Helvetica,sans-Serif" font-size="21.00">summary.tsv + report.txt</text>
</g>
<!-- s7&#45;&gt;o_rep -->
</g>
</svg>
