<?xml version="1.0" encoding="UTF-8" standalone="no"?>
<!DOCTYPE svg PUBLIC "-//W3C//DTD SVG 1.1//EN"
 "http://www.w3.org/Graphics/SVG/1.1/DTD/svg11.dtd">
<!-- Generated by graphviz version 2.43.0 (0)
 -->
<!-- Title: ngs45 Pages: 1 -->
<svg width="1604pt" height="1262pt"
 viewBox="0.00 0.00 1604.00 1262.00" xmlns="http://www.w3.org/2000/svg" xmlns:xlink="http://www.w3.org/1999/xlink">
<g id="graph0" class="graph" transform="scale(1 1) rotate(0) translate(4 1258)">
<title>ngs45</title>
<polygon fill="white" stroke="transparent" points="-4,4 -4,-1258 1600,-1258 1600,4 -4,4"/>
<g id="clust1" class="cluster">
<title>cluster_inputs</title>
<polygon fill="white" stroke="#9aa0a6" stroke-dasharray="5,2" points="8,-1046 8,-1246 1369,-1246 1369,-1046 8,-1046"/>
<text text-anchor="middle" x="46.5" y="-1226" font-family="Helvetica,sans-Serif" font-size="20.00" fill="#5f6368">INPUT</text>
</g>
<!-- reads -->
<g id="node1" class="node">
<title>reads</title>
<polygon fill="#d2e3fc" stroke="black" points="414.11,-1208 97.37,-1208 15.89,-1054 332.63,-1054 414.11,-1208"/>
<text text-anchor="middle" x="215" y="-1148.7" font-family="Helvetica,sans-Serif" font-size="21.00">Illumina</text>
<text text-anchor="middle" x="215" y="-1125.7" font-family="Helvetica,sans-Serif" font-size="21.00">paired&#45;end reads</text>
<text text-anchor="middle" x="215" y="-1102.7" font-family="Helvetica,sans-Serif" font-size="21.00">(FASTQ[.gz])</text>
</g>
<!-- s0 -->
<g id="node4" class="node">
<title>s0</title>
<path fill="#fef7e0" stroke="#e8a33d" d="M451,-1009C451,-1009 249,-1009 249,-1009 243,-1009 237,-1003 237,-997 237,-997 237,-967 237,-967 237,-961 243,-955 249,-955 249,-955 451,-955 451,-955 457,-955 463,-961 463,-967 463,-967 463,-997 463,-997 463,-1003 457,-1009 451,-1009"/>
<text text-anchor="middle" x="350" y="-988.2" font-family="Helvetica,sans-Serif" font-size="21.00">S0 &#160;QC / trim reads</text>
<text text-anchor="middle" x="350" y="-965.2" font-family="Helvetica,sans-Serif" font-size="21.00">cutadapt &#160;(optional)</text>
</g>
<!-- reads&#45;&gt;s0 -->
<g id="edge1" class="edge">
<title>reads&#45;&gt;s0</title>
<path fill="none" stroke="#c77800" stroke-width="1.8" d="M284.87,-1053.92C296.9,-1040.82 308.82,-1027.84 319.11,-1016.63"/>
<polygon fill="#c77800" stroke="#c77800" stroke-width="1.8" points="321.77,-1018.91 325.96,-1009.18 316.62,-1014.18 321.77,-1018.91"/>
</g>
<!-- seed -->
<g id="node2" class="node">
<title>seed</title>
<polygon fill="#d2e3fc" stroke="black" points="853.5,-1202 517.05,-1202 430.5,-1060 766.95,-1060 853.5,-1202"/>
<text text-anchor="start" x="546" y="-1146.7" font-family="Helvetica,sans-Serif" font-size="21.00">Bundled 45S seed</text>
<text text-anchor="start" x="557" y="-1125.7" font-family="Helvetica,sans-Serif" font-style="italic" font-size="21.00">Arabidopsis</text>
<text text-anchor="start" x="681" y="-1125.7" font-family="Helvetica,sans-Serif" font-size="21.00"> T2T</text>
<text text-anchor="start" x="577.5" y="-1104.7" font-family="Helvetica,sans-Serif" font-size="21.00">(OR453402)</text>
</g>
<!-- s1 -->
<g id="node5" class="node">
<title>s1</title>
<path fill="#fef7e0" stroke="#e8a33d" d="M874.5,-891C874.5,-891 409.5,-891 409.5,-891 403.5,-891 397.5,-885 397.5,-879 397.5,-879 397.5,-849 397.5,-849 397.5,-843 403.5,-837 409.5,-837 409.5,-837 874.5,-837 874.5,-837 880.5,-837 886.5,-843 886.5,-849 886.5,-849 886.5,-879 886.5,-879 886.5,-885 880.5,-891 874.5,-891"/>
<text text-anchor="middle" x="642" y="-870.2" font-family="Helvetica,sans-Serif" font-size="21.00">S1 &#160;Bait rDNA reads</text>
<text text-anchor="middle" x="642" y="-847.2" font-family="Helvetica,sans-Serif" font-size="21.00">bowtie2 — iterative recruitment vs 45S seed</text>
</g>
<!-- seed&#45;&gt;s1 -->
<g id="edge3" class="edge">
<title>seed&#45;&gt;s1</title>
<path fill="none" stroke="#c77800" stroke-width="1.8" d="M642,-1059.68C642,-1008.73 642,-941.91 642,-901.28"/>
<polygon fill="#c77800" stroke="#c77800" stroke-width="1.8" points="645.5,-901.05 642,-891.05 638.5,-901.05 645.5,-901.05"/>
</g>
<!-- cms -->
<g id="node3" class="node">
<title>cms</title>
<polygon fill="#d2e3fc" stroke="black" points="1360.92,-1208 969.72,-1208 869.08,-1054 1260.28,-1054 1360.92,-1208"/>
<text text-anchor="middle" x="1115" y="-1148.7" font-family="Helvetica,sans-Serif" font-size="21.00">Bundled Rfam</text>
<text text-anchor="middle" x="1115" y="-1125.7" font-family="Helvetica,sans-Serif" font-size="21.00">SSU+LSU CMs</text>
<text text-anchor="middle" x="1115" y="-1102.7" font-family="Helvetica,sans-Serif" font-size="21.00">(RF01960 / RF02543)</text>
</g>
<!-- s4 -->
<g id="node8" class="node">
<title>s4</title>
<path fill="#fef7e0" stroke="#e8a33d" d="M1333.5,-537C1333.5,-537 668.5,-537 668.5,-537 662.5,-537 656.5,-531 656.5,-525 656.5,-525 656.5,-495 656.5,-495 656.5,-489 662.5,-483 668.5,-483 668.5,-483 1333.5,-483 1333.5,-483 1339.5,-483 1345.5,-489 1345.5,-495 1345.5,-495 1345.5,-525 1345.5,-525 1345.5,-531 1339.5,-537 1333.5,-537"/>
<text text-anchor="middle" x="1001" y="-516.2" font-family="Helvetica,sans-Serif" font-size="21.00">S4 &#160;Orient &amp; trim to mature unit (18S 5&#39;&#45;26S 3&#39;)</text>
<text text-anchor="middle" x="1001" y="-493.2" font-family="Helvetica,sans-Serif" font-size="21.00">cmsearch vs Rfam SSU+LSU CMs &#160;→ &#160;collapse tandem&#45;dup (QC)</text>
</g>
<!-- cms&#45;&gt;s4 -->
<g id="edge7" class="edge">
<title>cms&#45;&gt;s4</title>
<path fill="none" stroke="#c77800" stroke-width="1.8" d="M1109.99,-1053.74C1108.87,-1030.99 1108,-1005.99 1108,-983 1108,-983 1108,-983 1108,-627 1108,-593.41 1097.24,-584.18 1075,-559 1070.05,-553.4 1064.3,-548.19 1058.23,-543.42"/>
<polygon fill="#c77800" stroke="#c77800" stroke-width="1.8" points="1059.93,-540.33 1049.8,-537.21 1055.77,-545.96 1059.93,-540.33"/>
</g>
<!-- s0&#45;&gt;s1 -->
<g id="edge2" class="edge">
<title>s0&#45;&gt;s1</title>
<path fill="none" stroke="#c77800" stroke-width="1.8" d="M415.53,-954.97C460.44,-937.13 520.13,-913.41 566.95,-894.81"/>
<polygon fill="#c77800" stroke="#c77800" stroke-width="1.8" points="568.43,-897.99 576.44,-891.05 565.85,-891.49 568.43,-897.99"/>
<text text-anchor="middle" x="539" y="-918.6" font-family="Helvetica,sans-Serif" font-size="18.00">reads</text>
</g>
<!-- s2 -->
<g id="node6" class="node">
<title>s2</title>
<path fill="#fbbc04" stroke="#b06000" stroke-width="2" d="M1064,-773C1064,-773 304,-773 304,-773 298,-773 292,-767 292,-761 292,-761 292,-731 292,-731 292,-725 298,-719 304,-719 304,-719 1064,-719 1064,-719 1070,-719 1076,-725 1076,-731 1076,-731 1076,-761 1076,-761 1076,-767 1070,-773 1064,-773"/>
<text text-anchor="middle" x="684" y="-752.2" font-family="Helvetica,sans-Serif" font-size="21.00">S2 &#160;Assemble recruited reads</text>
<text text-anchor="middle" x="684" y="-729.2" font-family="Helvetica,sans-Serif" font-size="21.00">SPAdes multi&#45;k &#160;(k &lt; read length) &#160;&#160;· &#160;&#160;coverage cap (&#45;&#45;max&#45;cov, optional)</text>
</g>
<!-- s1&#45;&gt;s2 -->
<g id="edge4" class="edge">
<title>s1&#45;&gt;s2</title>
<path fill="none" stroke="#c77800" stroke-width="1.8" d="M651.43,-836.97C657.17,-821.11 664.59,-800.61 670.9,-783.19"/>
<polygon fill="#c77800" stroke="#c77800" stroke-width="1.8" points="674.35,-783.94 674.46,-773.35 667.77,-781.56 674.35,-783.94"/>
<text text-anchor="middle" x="767.5" y="-800.6" font-family="Helvetica,sans-Serif" font-size="18.00">recruited reads (rDNA)</text>
</g>
<!-- s3 -->
<g id="node7" class="node">
<title>s3</title>
<path fill="#fef7e0" stroke="#e8a33d" d="M1020.5,-655C1020.5,-655 665.5,-655 665.5,-655 659.5,-655 653.5,-649 653.5,-643 653.5,-643 653.5,-613 653.5,-613 653.5,-607 659.5,-601 665.5,-601 665.5,-601 1020.5,-601 1020.5,-601 1026.5,-601 1032.5,-607 1032.5,-613 1032.5,-613 1032.5,-643 1032.5,-643 1032.5,-649 1026.5,-655 1020.5,-655"/>
<text text-anchor="middle" x="843" y="-634.2" font-family="Helvetica,sans-Serif" font-size="21.00">S3 &#160;Resolve one repeat unit</text>
<text text-anchor="middle" x="843" y="-611.2" font-family="Helvetica,sans-Serif" font-size="21.00">BLAST seed vs contigs + scaffolds</text>
</g>
<!-- s2&#45;&gt;s3 -->
<g id="edge5" class="edge">
<title>s2&#45;&gt;s3</title>
<path fill="none" stroke="#c77800" stroke-width="1.8" d="M719.68,-718.97C743.13,-701.86 773.96,-679.37 798.94,-661.15"/>
<polygon fill="#c77800" stroke="#c77800" stroke-width="1.8" points="801.15,-663.87 807.16,-655.15 797.02,-658.21 801.15,-663.87"/>
<text text-anchor="middle" x="859.5" y="-682.6" font-family="Helvetica,sans-Serif" font-size="18.00">contigs + scaffolds</text>
</g>
<!-- s3&#45;&gt;s4 -->
<g id="edge6" class="edge">
<title>s3&#45;&gt;s4</title>
<path fill="none" stroke="#c77800" stroke-width="1.8" d="M878.46,-600.97C901.76,-583.86 932.4,-561.37 957.21,-543.15"/>
<polygon fill="#c77800" stroke="#c77800" stroke-width="1.8" points="959.4,-545.89 965.39,-537.15 955.25,-540.24 959.4,-545.89"/>
<text text-anchor="middle" x="1001" y="-564.6" font-family="Helvetica,sans-Serif" font-size="18.00">one repeat unit</text>
</g>
<!-- s5 -->
<g id="node9" class="node">
<title>s5</title>
<path fill="#fef7e0" stroke="#e8a33d" d="M1284.5,-419C1284.5,-419 717.5,-419 717.5,-419 711.5,-419 705.5,-413 705.5,-407 705.5,-407 705.5,-377 705.5,-377 705.5,-371 711.5,-365 717.5,-365 717.5,-365 1284.5,-365 1284.5,-365 1290.5,-365 1296.5,-371 1296.5,-377 1296.5,-377 1296.5,-407 1296.5,-407 1296.5,-413 1290.5,-419 1284.5,-419"/>
<text text-anchor="middle" x="1001" y="-398.2" font-family="Helvetica,sans-Serif" font-size="21.00">S5 &#160;Annotate + ITS barcode</text>
<text text-anchor="middle" x="1001" y="-375.2" font-family="Helvetica,sans-Serif" font-size="21.00">ITSx (18S / ITS1 / 5.8S / ITS2 / 26S) — barrnap fallback</text>
</g>
<!-- s4&#45;&gt;s5 -->
<g id="edge8" class="edge">
<title>s4&#45;&gt;s5</title>
<path fill="none" stroke="#c77800" stroke-width="1.8" d="M1001,-482.97C1001,-467.26 1001,-447 1001,-429.68"/>
<polygon fill="#c77800" stroke="#c77800" stroke-width="1.8" points="1004.5,-429.35 1001,-419.35 997.5,-429.35 1004.5,-429.35"/>
<text text-anchor="middle" x="1094.5" y="-446.6" font-family="Helvetica,sans-Serif" font-size="18.00">mature 18S&#45;26S unit</text>
</g>
<!-- s6 -->
<g id="node10" class="node">
<title>s6</title>
<path fill="#fef7e0" stroke="#e8a33d" d="M1186.5,-301C1186.5,-301 815.5,-301 815.5,-301 809.5,-301 803.5,-295 803.5,-289 803.5,-289 803.5,-259 803.5,-259 803.5,-253 809.5,-247 815.5,-247 815.5,-247 1186.5,-247 1186.5,-247 1192.5,-247 1198.5,-253 1198.5,-259 1198.5,-259 1198.5,-289 1198.5,-289 1198.5,-295 1192.5,-301 1186.5,-301"/>
<text text-anchor="middle" x="1001" y="-280.2" font-family="Helvetica,sans-Serif" font-size="21.00">S6 &#160;Ribotype heterozygosity</text>
<text text-anchor="middle" x="1001" y="-257.2" font-family="Helvetica,sans-Serif" font-size="21.00">bwa | samtools | bcftools &#160;(optional)</text>
</g>
<!-- s5&#45;&gt;s6 -->
<g id="edge9" class="edge">
<title>s5&#45;&gt;s6</title>
<path fill="none" stroke="#c77800" stroke-width="1.8" d="M1001,-364.97C1001,-349.26 1001,-329 1001,-311.68"/>
<polygon fill="#c77800" stroke="#c77800" stroke-width="1.8" points="1004.5,-311.35 1001,-301.35 997.5,-311.35 1004.5,-311.35"/>
<text text-anchor="middle" x="1069" y="-328.6" font-family="Helvetica,sans-Serif" font-size="18.00">consensus unit</text>
</g>
<!-- s7 -->
<g id="node11" class="node">
<title>s7</title>
<path fill="#fef7e0" stroke="#e8a33d" d="M960,-168.5C960,-168.5 730,-168.5 730,-168.5 724,-168.5 718,-162.5 718,-156.5 718,-156.5 718,-144.5 718,-144.5 718,-138.5 724,-132.5 730,-132.5 730,-132.5 960,-132.5 960,-132.5 966,-132.5 972,-138.5 972,-144.5 972,-144.5 972,-156.5 972,-156.5 972,-162.5 966,-168.5 960,-168.5"/>
<text text-anchor="middle" x="845" y="-145.2" font-family="Helvetica,sans-Serif" font-size="21.00">S7 &#160;Summary + report</text>
</g>
<!-- s6&#45;&gt;s7 -->
<g id="edge10" class="edge">
<title>s6&#45;&gt;s7</title>
<path fill="none" stroke="#c77800" stroke-width="1.8" d="M967.53,-246.94C940.07,-225.54 901.52,-195.52 875.04,-174.89"/>
<polygon fill="#c77800" stroke="#c77800" stroke-width="1.8" points="876.93,-171.93 866.89,-168.55 872.63,-177.45 876.93,-171.93"/>
</g>
<!-- rnote -->
<g id="node12" class="node">
<title>rnote</title>
<polygon fill="#fce8e6" stroke="#c5221f" points="1321.5,-202 988.5,-202 988.5,-99 1327.5,-99 1327.5,-196 1321.5,-202"/>
<polyline fill="none" stroke="#c5221f" points="1321.5,-202 1321.5,-196 "/>
<polyline fill="none" stroke="#c5221f" points="1327.5,-196 1321.5,-196 "/>
<text text-anchor="start" x="996.5" y="-184.4" font-family="Helvetica,sans-Serif" font-size="17.00">ribotype_sites (&#45;&#45;call&#45;variants):</text>
<text text-anchor="start" x="996.5" y="-165.4" font-family="Helvetica,sans-Serif" font-size="17.00"> &#160;map reads back to the unit</text>
<text text-anchor="start" x="996.5" y="-146.4" font-family="Helvetica,sans-Serif" font-size="17.00"> &#160;minor allele &gt;= 10% at depth &gt;= 20</text>
<text text-anchor="start" x="996.5" y="-127.4" font-family="Helvetica,sans-Serif" font-size="17.00"> &#160;high count &#45;&gt; heterogeneous array</text>
<text text-anchor="start" x="996.5" y="-108.4" font-family="Helvetica,sans-Serif" font-size="17.00"> &#160;(hybrid / allopolyploidy signal)</text>
</g>
<!-- s6&#45;&gt;rnote -->
<g id="edge11" class="edge">
<title>s6&#45;&gt;rnote</title>
<path fill="none" stroke="#c5221f" stroke-width="1.8" stroke-dasharray="1,5" d="M1034.68,-246.94C1051.62,-233.83 1072.75,-217.48 1092.7,-202.03"/>
</g>
<!-- o_unit -->
<g id="node13" class="node">
<title>o_unit</title>
<polygon fill="#e6f4ea" stroke="#34a853" points="318.5,-54 65.5,-54 65.5,0 324.5,0 324.5,-48 318.5,-54"/>
<polyline fill="none" stroke="#34a853" points="318.5,-54 318.5,-48 "/>
<polyline fill="none" stroke="#34a853" points="324.5,-48 318.5,-48 "/>
<text text-anchor="middle" x="195" y="-33.2" font-family="Helvetica,sans-Serif" font-size="21.00">nrDNA_45S.fasta</text>
<text text-anchor="middle" x="195" y="-10.2" font-family="Helvetica,sans-Serif" font-size="21.00">(mature unit, 18S&#45;26S)</text>
</g>
<!-- s7&#45;&gt;o_unit -->
<g id="edge12" class="edge">
<title>s7&#45;&gt;o_unit</title>
<path fill="none" stroke="#c77800" stroke-width="1.8" d="M753.43,-132.47C653.18,-113.82 487.4,-82.94 334.69,-54.32"/>
<polygon fill="#c77800" stroke="#c77800" stroke-width="1.8" points="335.12,-50.84 324.65,-52.43 333.83,-57.72 335.12,-50.84"/>
</g>
<!-- o_its -->
<g id="node14" class="node">
<title>o_its</title>
<polygon fill="#e6f4ea" stroke="#34a853" points="617,-54 341,-54 341,0 623,0 623,-48 617,-54"/>
<polyline fill="none" stroke="#34a853" points="617,-54 617,-48 "/>
<polyline fill="none" stroke="#34a853" points="623,-48 617,-48 "/>
<text text-anchor="middle" x="482" y="-33.2" font-family="Helvetica,sans-Serif" font-size="21.00">its.fasta + its_parts.fasta</text>
<text text-anchor="middle" x="482" y="-10.2" font-family="Helvetica,sans-Serif" font-size="21.00">(ITS barcode)</text>
</g>
<!-- s7&#45;&gt;o_its -->
<!-- o_reg -->
<g id="node15" class="node">
<title>o_reg</title>
<polygon fill="#e6f4ea" stroke="#34a853" points="837,-54 639,-54 639,0 843,0 843,-48 837,-54"/>
<polyline fill="none" stroke="#34a853" points="837,-54 837,-48 "/>
<polyline fill="none" stroke="#34a853" points="843,-48 837,-48 "/>
<text text-anchor="middle" x="741" y="-33.2" font-family="Helvetica,sans-Serif" font-size="21.00">regions/</text>
<text text-anchor="middle" x="741" y="-10.2" font-family="Helvetica,sans-Serif" font-size="21.00">(five 45S regions)</text>
</g>
<!-- s7&#45;&gt;o_reg -->
<!-- o_gff -->
<g id="node16" class="node">
<title>o_gff</title>
<polygon fill="#e6f4ea" stroke="#34a853" points="1032.5,-45 859.5,-45 859.5,-9 1038.5,-9 1038.5,-39 1032.5,-45"/>
<polyline fill="none" stroke="#34a853" points="1032.5,-45 1032.5,-39 "/>
<polyline fill="none" stroke="#34a853" points="1038.5,-39 1032.5,-39 "/>
<text text-anchor="middle" x="949" y="-21.7" font-family="Helvetica,sans-Serif" font-size="21.00">annotation.gff3</text>
</g>
<!-- s7&#45;&gt;o_gff -->
<!-- o_rib -->
<g id="node17" class="node">
<title>o_rib</title>
<polygon fill="#e6f4ea" stroke="#34a853" points="1289.5,-45 1054.5,-45 1054.5,-9 1295.5,-9 1295.5,-39 1289.5,-45"/>
<polyline fill="none" stroke="#34a853" points="1289.5,-45 1289.5,-39 "/>
<polyline fill="none" stroke="#34a853" points="1295.5,-39 1289.5,-39 "/>
<text text-anchor="middle" x="1175" y="-21.7" font-family="Helvetica,sans-Serif" font-size="21.00">ribotype_variants.tsv</text>
</g>
<!-- s7&#45;&gt;o_rib -->
<!-- o_rep -->
<g id="node18" class="node">
<title>o_rep</title>
<polygon fill="#e6f4ea" stroke="#34a853" points="1590,-45 1312,-45 1312,-9 1596,-9 1596,-39 1590,-45"/>
<polyline fill="none" stroke="#34a853" points="1590,-45 1590,-39 "/>
<polyline fill="none" stroke="#34a853" points="1596,-39 1590,-39 "/>
<text text-anchor="middle" x="1454" y="-21.7" font-family="Helvetica,sans-Serif" font-size="21.00">summary.tsv + report.txt</text>
</g>
<!-- s7&#45;&gt;o_rep -->
</g>
</svg>
