<?xml version="1.0" encoding="UTF-8" standalone="no"?>
<!DOCTYPE svg PUBLIC "-//W3C//DTD SVG 1.1//EN"
 "http://www.w3.org/Graphics/SVG/1.1/DTD/svg11.dtd">
<!-- Generated by graphviz version 2.43.0 (0)
 -->
<!-- Title: ngs45 Pages: 1 -->
<svg width="1936pt" height="1184pt"
 viewBox="0.00 0.00 1936.00 1184.00" xmlns="http://www.w3.org/2000/svg" xmlns:xlink="http://www.w3.org/1999/xlink">
<g id="graph0" class="graph" transform="scale(1 1) rotate(0) translate(4 1180)">
<title>ngs45</title>
<polygon fill="white" stroke="transparent" points="-4,4 -4,-1180 1932,-1180 1932,4 -4,4"/>
<g id="clust1" class="cluster">
<title>cluster_inputs</title>
<polygon fill="white" stroke="#9aa0a6" stroke-dasharray="5,2" points="8,-1019 8,-1168 1920,-1168 1920,-1019 8,-1019"/>
<text text-anchor="middle" x="44.5" y="-1148.8" font-family="Helvetica,sans-Serif" font-size="19.00" fill="#5f6368">INPUT</text>
</g>
<!-- reads -->
<g id="node1" class="node">
<title>reads</title>
<polygon fill="#d2e3fc" stroke="black" points="577.92,-1131 131.04,-1131 16.08,-1027 462.96,-1027 577.92,-1131"/>
<text text-anchor="middle" x="297" y="-1085" font-family="Helvetica,sans-Serif" font-size="20.00">Illumina paired&#45;end reads</text>
<text text-anchor="middle" x="297" y="-1063" font-family="Helvetica,sans-Serif" font-size="20.00">(FASTQ[.gz])</text>
</g>
<!-- s0 -->
<g id="node4" class="node">
<title>s0</title>
<path fill="#fef7e0" stroke="#e8a33d" d="M600,-982C600,-982 412,-982 412,-982 406,-982 400,-976 400,-970 400,-970 400,-942 400,-942 400,-936 406,-930 412,-930 412,-930 600,-930 600,-930 606,-930 612,-936 612,-942 612,-942 612,-970 612,-970 612,-976 606,-982 600,-982"/>
<text text-anchor="middle" x="506" y="-962" font-family="Helvetica,sans-Serif" font-size="20.00">S0 &#160;QC / trim reads</text>
<text text-anchor="middle" x="506" y="-940" font-family="Helvetica,sans-Serif" font-size="20.00">cutadapt &#160;(optional)</text>
</g>
<!-- reads&#45;&gt;s0 -->
<g id="edge1" class="edge">
<title>reads&#45;&gt;s0</title>
<path fill="none" stroke="#c77800" stroke-width="1.8" d="M385.33,-1026.86C408.73,-1013.32 433.23,-999.13 454,-987.11"/>
<polygon fill="#c77800" stroke="#c77800" stroke-width="1.8" points="455.75,-990.13 462.66,-982.09 452.25,-984.08 455.75,-990.13"/>
</g>
<!-- seed -->
<g id="node2" class="node">
<title>seed</title>
<polygon fill="#d2e3fc" stroke="black" points="1240.2,-1131 741.97,-1131 613.8,-1027 1112.03,-1027 1240.2,-1131"/>
<text text-anchor="middle" x="927" y="-1085" font-family="Helvetica,sans-Serif" font-size="20.00">Bundled 45S seed</text>
<text text-anchor="middle" x="927" y="-1063" font-family="Helvetica,sans-Serif" font-size="20.00">Arabidopsis T2T (OR453402)</text>
</g>
<!-- s1 -->
<g id="node5" class="node">
<title>s1</title>
<path fill="#fef7e0" stroke="#e8a33d" d="M1144,-867C1144,-867 710,-867 710,-867 704,-867 698,-861 698,-855 698,-855 698,-827 698,-827 698,-821 704,-815 710,-815 710,-815 1144,-815 1144,-815 1150,-815 1156,-821 1156,-827 1156,-827 1156,-855 1156,-855 1156,-861 1150,-867 1144,-867"/>
<text text-anchor="middle" x="927" y="-847" font-family="Helvetica,sans-Serif" font-size="20.00">S1 &#160;Bait rDNA reads</text>
<text text-anchor="middle" x="927" y="-825" font-family="Helvetica,sans-Serif" font-size="20.00">bowtie2 — iterative recruitment vs 45S seed</text>
</g>
<!-- seed&#45;&gt;s1 -->
<g id="edge3" class="edge">
<title>seed&#45;&gt;s1</title>
<path fill="none" stroke="#c77800" stroke-width="1.8" d="M927,-1026.79C927,-981.59 927,-916.89 927,-877.26"/>
<polygon fill="#c77800" stroke="#c77800" stroke-width="1.8" points="930.5,-877.03 927,-867.03 923.5,-877.03 930.5,-877.03"/>
</g>
<!-- cms -->
<g id="node3" class="node">
<title>cms</title>
<polygon fill="#d2e3fc" stroke="black" points="1912.07,-1131 1406.09,-1131 1275.93,-1027 1781.91,-1027 1912.07,-1131"/>
<text text-anchor="middle" x="1594" y="-1085" font-family="Helvetica,sans-Serif" font-size="20.00">Bundled Rfam SSU+LSU CMs</text>
<text text-anchor="middle" x="1594" y="-1063" font-family="Helvetica,sans-Serif" font-size="20.00">(RF01960 / RF02543)</text>
</g>
<!-- s4 -->
<g id="node8" class="node">
<title>s4</title>
<path fill="#fef7e0" stroke="#e8a33d" d="M1516.5,-522C1516.5,-522 1055.5,-522 1055.5,-522 1049.5,-522 1043.5,-516 1043.5,-510 1043.5,-510 1043.5,-482 1043.5,-482 1043.5,-476 1049.5,-470 1055.5,-470 1055.5,-470 1516.5,-470 1516.5,-470 1522.5,-470 1528.5,-476 1528.5,-482 1528.5,-482 1528.5,-510 1528.5,-510 1528.5,-516 1522.5,-522 1516.5,-522"/>
<text text-anchor="middle" x="1286" y="-502" font-family="Helvetica,sans-Serif" font-size="20.00">S4 &#160;Orient &amp; trim to mature unit (18S 5&#39;&#45;26S 3&#39;)</text>
<text text-anchor="middle" x="1286" y="-480" font-family="Helvetica,sans-Serif" font-size="20.00">cmsearch vs Rfam SSU+LSU CMs</text>
</g>
<!-- cms&#45;&gt;s4 -->
<g id="edge7" class="edge">
<title>cms&#45;&gt;s4</title>
<path fill="none" stroke="#c77800" stroke-width="1.8" d="M1442.25,-1026.73C1418.7,-1009.47 1402,-986.75 1402,-957 1402,-957 1402,-957 1402,-610 1402,-577.78 1393.93,-567.61 1372,-544 1366.34,-537.91 1359.71,-532.43 1352.68,-527.55"/>
<polygon fill="#c77800" stroke="#c77800" stroke-width="1.8" points="1354.57,-524.61 1344.28,-522.1 1350.76,-530.48 1354.57,-524.61"/>
</g>
<!-- s0&#45;&gt;s1 -->
<g id="edge2" class="edge">
<title>s0&#45;&gt;s1</title>
<path fill="none" stroke="#c77800" stroke-width="1.8" d="M599.17,-929.99C665.66,-912.15 755.08,-888.14 823.74,-869.72"/>
<polygon fill="#c77800" stroke="#c77800" stroke-width="1.8" points="824.96,-873.01 833.71,-867.04 823.15,-866.25 824.96,-873.01"/>
<text text-anchor="middle" x="765" y="-894.4" font-family="Helvetica,sans-Serif" font-size="17.00">reads</text>
</g>
<!-- s2 -->
<g id="node6" class="node">
<title>s2</title>
<path fill="#fbbc04" stroke="#b06000" stroke-width="2" d="M1307,-752C1307,-752 987,-752 987,-752 981,-752 975,-746 975,-740 975,-740 975,-712 975,-712 975,-706 981,-700 987,-700 987,-700 1307,-700 1307,-700 1313,-700 1319,-706 1319,-712 1319,-712 1319,-740 1319,-740 1319,-746 1313,-752 1307,-752"/>
<text text-anchor="middle" x="1147" y="-732" font-family="Helvetica,sans-Serif" font-size="20.00">S2 &#160;Assemble recruited reads</text>
<text text-anchor="middle" x="1147" y="-710" font-family="Helvetica,sans-Serif" font-size="20.00">SPAdes multi&#45;k &#160;(k &lt; read length)</text>
</g>
<!-- s1&#45;&gt;s2 -->
<g id="edge4" class="edge">
<title>s1&#45;&gt;s2</title>
<path fill="none" stroke="#c77800" stroke-width="1.8" d="M975.83,-814.92C1009.29,-797.73 1053.84,-774.85 1089.1,-756.74"/>
<polygon fill="#c77800" stroke="#c77800" stroke-width="1.8" points="1091.02,-759.69 1098.31,-752.01 1087.82,-753.46 1091.02,-759.69"/>
<text text-anchor="middle" x="1146" y="-779.4" font-family="Helvetica,sans-Serif" font-size="17.00">recruited reads (rDNA)</text>
</g>
<!-- s3 -->
<g id="node7" class="node">
<title>s3</title>
<path fill="#fef7e0" stroke="#e8a33d" d="M1332,-637C1332,-637 1000,-637 1000,-637 994,-637 988,-631 988,-625 988,-625 988,-597 988,-597 988,-591 994,-585 1000,-585 1000,-585 1332,-585 1332,-585 1338,-585 1344,-591 1344,-597 1344,-597 1344,-625 1344,-625 1344,-631 1338,-637 1332,-637"/>
<text text-anchor="middle" x="1166" y="-617" font-family="Helvetica,sans-Serif" font-size="20.00">S3 &#160;Resolve one repeat unit</text>
<text text-anchor="middle" x="1166" y="-595" font-family="Helvetica,sans-Serif" font-size="20.00">BLAST seed vs contigs + scaffolds</text>
</g>
<!-- s2&#45;&gt;s3 -->
<g id="edge5" class="edge">
<title>s2&#45;&gt;s3</title>
<path fill="none" stroke="#c77800" stroke-width="1.8" d="M1151.22,-699.92C1153.82,-684.41 1157.21,-664.28 1160.08,-647.19"/>
<polygon fill="#c77800" stroke="#c77800" stroke-width="1.8" points="1163.59,-647.45 1161.8,-637.01 1156.69,-646.29 1163.59,-647.45"/>
<text text-anchor="middle" x="1237.5" y="-664.4" font-family="Helvetica,sans-Serif" font-size="17.00">contigs + scaffolds</text>
</g>
<!-- s3&#45;&gt;s4 -->
<g id="edge6" class="edge">
<title>s3&#45;&gt;s4</title>
<path fill="none" stroke="#c77800" stroke-width="1.8" d="M1192.63,-584.92C1210.03,-568.54 1232.92,-546.98 1251.68,-529.32"/>
<polygon fill="#c77800" stroke="#c77800" stroke-width="1.8" points="1254.56,-531.41 1259.44,-522.01 1249.76,-526.32 1254.56,-531.41"/>
<text text-anchor="middle" x="1298" y="-549.4" font-family="Helvetica,sans-Serif" font-size="17.00">one repeat unit</text>
</g>
<!-- s5 -->
<g id="node9" class="node">
<title>s5</title>
<path fill="#fef7e0" stroke="#e8a33d" d="M1552,-407C1552,-407 1020,-407 1020,-407 1014,-407 1008,-401 1008,-395 1008,-395 1008,-367 1008,-367 1008,-361 1014,-355 1020,-355 1020,-355 1552,-355 1552,-355 1558,-355 1564,-361 1564,-367 1564,-367 1564,-395 1564,-395 1564,-401 1558,-407 1552,-407"/>
<text text-anchor="middle" x="1286" y="-387" font-family="Helvetica,sans-Serif" font-size="20.00">S5 &#160;Annotate + ITS barcode</text>
<text text-anchor="middle" x="1286" y="-365" font-family="Helvetica,sans-Serif" font-size="20.00">ITSx (18S / ITS1 / 5.8S / ITS2 / 26S) — barrnap fallback</text>
</g>
<!-- s4&#45;&gt;s5 -->
<g id="edge8" class="edge">
<title>s4&#45;&gt;s5</title>
<path fill="none" stroke="#c77800" stroke-width="1.8" d="M1286,-469.92C1286,-454.41 1286,-434.28 1286,-417.19"/>
<polygon fill="#c77800" stroke="#c77800" stroke-width="1.8" points="1289.5,-417.01 1286,-407.01 1282.5,-417.01 1289.5,-417.01"/>
<text text-anchor="middle" x="1373" y="-434.4" font-family="Helvetica,sans-Serif" font-size="17.00">mature 18S&#45;26S unit</text>
</g>
<!-- s6 -->
<g id="node10" class="node">
<title>s6</title>
<path fill="#fef7e0" stroke="#e8a33d" d="M1458.5,-292C1458.5,-292 1113.5,-292 1113.5,-292 1107.5,-292 1101.5,-286 1101.5,-280 1101.5,-280 1101.5,-252 1101.5,-252 1101.5,-246 1107.5,-240 1113.5,-240 1113.5,-240 1458.5,-240 1458.5,-240 1464.5,-240 1470.5,-246 1470.5,-252 1470.5,-252 1470.5,-280 1470.5,-280 1470.5,-286 1464.5,-292 1458.5,-292"/>
<text text-anchor="middle" x="1286" y="-272" font-family="Helvetica,sans-Serif" font-size="20.00">S6 &#160;Ribotype heterozygosity</text>
<text text-anchor="middle" x="1286" y="-250" font-family="Helvetica,sans-Serif" font-size="20.00">bwa | samtools | bcftools &#160;(optional)</text>
</g>
<!-- s5&#45;&gt;s6 -->
<g id="edge9" class="edge">
<title>s5&#45;&gt;s6</title>
<path fill="none" stroke="#c77800" stroke-width="1.8" d="M1286,-354.92C1286,-339.41 1286,-319.28 1286,-302.19"/>
<polygon fill="#c77800" stroke="#c77800" stroke-width="1.8" points="1289.5,-302.01 1286,-292.01 1282.5,-302.01 1289.5,-302.01"/>
<text text-anchor="middle" x="1349.5" y="-319.4" font-family="Helvetica,sans-Serif" font-size="17.00">consensus unit</text>
</g>
<!-- s7 -->
<g id="node11" class="node">
<title>s7</title>
<path fill="#fef7e0" stroke="#e8a33d" d="M1234,-164C1234,-164 1018,-164 1018,-164 1012,-164 1006,-158 1006,-152 1006,-152 1006,-140 1006,-140 1006,-134 1012,-128 1018,-128 1018,-128 1234,-128 1234,-128 1240,-128 1246,-134 1246,-140 1246,-140 1246,-152 1246,-152 1246,-158 1240,-164 1234,-164"/>
<text text-anchor="middle" x="1126" y="-141" font-family="Helvetica,sans-Serif" font-size="20.00">S7 &#160;Summary + report</text>
</g>
<!-- s6&#45;&gt;s7 -->
<g id="edge10" class="edge">
<title>s6&#45;&gt;s7</title>
<path fill="none" stroke="#c77800" stroke-width="1.8" d="M1252.07,-239.98C1224.14,-219.38 1184.84,-190.39 1157.57,-170.28"/>
<polygon fill="#c77800" stroke="#c77800" stroke-width="1.8" points="1159.65,-167.47 1149.52,-164.35 1155.49,-173.1 1159.65,-167.47"/>
</g>
<!-- rnote -->
<g id="node12" class="node">
<title>rnote</title>
<polygon fill="#fce8e6" stroke="#c5221f" points="1604,-195 1282,-195 1282,-97 1610,-97 1610,-189 1604,-195"/>
<polyline fill="none" stroke="#c5221f" points="1604,-195 1604,-189 "/>
<polyline fill="none" stroke="#c5221f" points="1610,-189 1604,-189 "/>
<text text-anchor="start" x="1290" y="-178.2" font-family="Helvetica,sans-Serif" font-size="16.00">ribotype_sites (&#45;&#45;call&#45;variants):</text>
<text text-anchor="start" x="1290" y="-160.2" font-family="Helvetica,sans-Serif" font-size="16.00"> &#160;map reads back to the unit</text>
<text text-anchor="start" x="1290" y="-142.2" font-family="Helvetica,sans-Serif" font-size="16.00"> &#160;minor allele &gt;= 10% at depth &gt;= 20</text>
<text text-anchor="start" x="1290" y="-124.2" font-family="Helvetica,sans-Serif" font-size="16.00"> &#160;high count &#45;&gt; heterogeneous array</text>
<text text-anchor="start" x="1290" y="-106.2" font-family="Helvetica,sans-Serif" font-size="16.00"> &#160;(hybrid / allopolyploidy signal)</text>
</g>
<!-- s6&#45;&gt;rnote -->
<g id="edge11" class="edge">
<title>s6&#45;&gt;rnote</title>
<path fill="none" stroke="#c5221f" stroke-width="1.8" stroke-dasharray="1,5" d="M1319.93,-239.98C1337.64,-226.92 1359.91,-210.49 1380.78,-195.1"/>
</g>
<!-- o_unit -->
<g id="node13" class="node">
<title>o_unit</title>
<polygon fill="#e6f4ea" stroke="#34a853" points="582,-52 344,-52 344,0 588,0 588,-46 582,-52"/>
<polyline fill="none" stroke="#34a853" points="582,-52 582,-46 "/>
<polyline fill="none" stroke="#34a853" points="588,-46 582,-46 "/>
<text text-anchor="middle" x="466" y="-32" font-family="Helvetica,sans-Serif" font-size="20.00">nrDNA_45S.fasta</text>
<text text-anchor="middle" x="466" y="-10" font-family="Helvetica,sans-Serif" font-size="20.00">(mature unit, 18S&#45;26S)</text>
</g>
<!-- s7&#45;&gt;o_unit -->
<g id="edge12" class="edge">
<title>s7&#45;&gt;o_unit</title>
<path fill="none" stroke="#c77800" stroke-width="1.8" d="M1030.74,-127.97C916.97,-107.63 726.02,-73.49 598.06,-50.61"/>
<polygon fill="#c77800" stroke="#c77800" stroke-width="1.8" points="598.65,-47.16 588.19,-48.85 597.42,-54.05 598.65,-47.16"/>
</g>
<!-- o_its -->
<g id="node14" class="node">
<title>o_its</title>
<polygon fill="#e6f4ea" stroke="#34a853" points="880,-52 624,-52 624,0 886,0 886,-46 880,-52"/>
<polyline fill="none" stroke="#34a853" points="880,-52 880,-46 "/>
<polyline fill="none" stroke="#34a853" points="886,-46 880,-46 "/>
<text text-anchor="middle" x="755" y="-32" font-family="Helvetica,sans-Serif" font-size="20.00">its.fasta + its_parts.fasta</text>
<text text-anchor="middle" x="755" y="-10" font-family="Helvetica,sans-Serif" font-size="20.00">(ITS barcode)</text>
</g>
<!-- s7&#45;&gt;o_its -->
<!-- o_reg -->
<g id="node15" class="node">
<title>o_reg</title>
<polygon fill="#e6f4ea" stroke="#34a853" points="1107.5,-52 922.5,-52 922.5,0 1113.5,0 1113.5,-46 1107.5,-52"/>
<polyline fill="none" stroke="#34a853" points="1107.5,-52 1107.5,-46 "/>
<polyline fill="none" stroke="#34a853" points="1113.5,-46 1107.5,-46 "/>
<text text-anchor="middle" x="1018" y="-32" font-family="Helvetica,sans-Serif" font-size="20.00">regions/</text>
<text text-anchor="middle" x="1018" y="-10" font-family="Helvetica,sans-Serif" font-size="20.00">(five 45S regions)</text>
</g>
<!-- s7&#45;&gt;o_reg -->
<!-- o_gff -->
<g id="node16" class="node">
<title>o_gff</title>
<polygon fill="#e6f4ea" stroke="#34a853" points="1312,-44 1150,-44 1150,-8 1318,-8 1318,-38 1312,-44"/>
<polyline fill="none" stroke="#34a853" points="1312,-44 1312,-38 "/>
<polyline fill="none" stroke="#34a853" points="1318,-38 1312,-38 "/>
<text text-anchor="middle" x="1234" y="-21" font-family="Helvetica,sans-Serif" font-size="20.00">annotation.gff3</text>
</g>
<!-- s7&#45;&gt;o_gff -->
<!-- o_rib -->
<g id="node17" class="node">
<title>o_rib</title>
<polygon fill="#e6f4ea" stroke="#34a853" points="1573.5,-44 1354.5,-44 1354.5,-8 1579.5,-8 1579.5,-38 1573.5,-44"/>
<polyline fill="none" stroke="#34a853" points="1573.5,-44 1573.5,-38 "/>
<polyline fill="none" stroke="#34a853" points="1579.5,-38 1573.5,-38 "/>
<text text-anchor="middle" x="1467" y="-21" font-family="Helvetica,sans-Serif" font-size="20.00">ribotype_variants.tsv</text>
</g>
<!-- s7&#45;&gt;o_rib -->
<!-- o_rep -->
<g id="node18" class="node">
<title>o_rep</title>
<polygon fill="#e6f4ea" stroke="#34a853" points="1876.5,-44 1615.5,-44 1615.5,-8 1882.5,-8 1882.5,-38 1876.5,-44"/>
<polyline fill="none" stroke="#34a853" points="1876.5,-44 1876.5,-38 "/>
<polyline fill="none" stroke="#34a853" points="1882.5,-38 1876.5,-38 "/>
<text text-anchor="middle" x="1749" y="-21" font-family="Helvetica,sans-Serif" font-size="20.00">summary.tsv + report.txt</text>
</g>
<!-- s7&#45;&gt;o_rep -->
</g>
</svg>
